<?xml version="1.0" encoding="UTF-8" standalone="no"?>
<svg width="47px" height="47px" viewBox="0 0 47 47" version="1.1" xmlns="http://www.w3.org/2000/svg" xmlns:xlink="http://www.w3.org/1999/xlink" xmlns:sketch="http://www.bohemiancoding.com/sketch/ns">
    <!-- Generator: Sketch 3.0.4 (8053) - http://www.bohemiancoding.com/sketch -->
    <title>Android Phone</title>
    <desc>Created with Sketch.</desc>
    <defs></defs>
    <g id="Page-1" stroke="none" stroke-width="1" fill="none" fill-rule="evenodd" sketch:type="MSPage">
        <g id="512" sketch:type="MSArtboardGroup" transform="translate(-2.000000, -78.000000)" fill="#FFFFFF">
            <g id="Alice" sketch:type="MSLayerGroup" transform="translate(2.000000, 78.000000)">
                <g id="Android-Phone" sketch:type="MSShapeGroup">
                    <path d="M23.5,1.33522727 C29.4203977,1.33522727 34.9864261,3.6407642 39.1728977,7.82710227 C43.3592358,12.0135739 45.6647727,17.5796023 45.6647727,23.5 C45.6647727,29.4203977 43.3592358,34.9864261 39.1728977,39.1728977 C34.9864261,43.3591023 29.4203977,45.6647727 23.5,45.6647727 C17.5796023,45.6647727 12.0135739,43.3591023 7.82710227,39.1728977 C3.6407642,34.9864261 1.33522727,29.4203977 1.33522727,23.5 C1.33522727,17.5796023 3.6407642,12.0135739 7.82710227,7.82710227 C12.0135739,3.6407642 17.5796023,1.33522727 23.5,1.33522727 L23.5,1.33522727 Z M0,23.5 C0,36.4787306 10.5212694,47 23.5,47 C36.4787306,47 47,36.4787306 47,23.5 C47,10.5212694 36.4787306,0 23.5,0 C10.5212694,0 0,10.5212694 0,23.5 Z M11.8967415,17.8338295 C10.8027898,17.8332955 9.91633239,18.7216222 9.9157983,19.8145057 L9.91766761,28.1098722 C9.91766761,29.2064943 10.8049261,30.0916165 11.8988778,30.0913494 C12.9933636,30.0913494 13.8803551,29.2062273 13.8790199,28.1098722 L13.8790199,19.8134375 C13.8786193,18.720821 12.9906932,17.8330284 11.8967415,17.8338295 L11.8967415,17.8338295 Z M27.8714006,10.3843295 L29.2540284,7.85941477 C29.3281335,7.72749432 29.2792642,7.5593892 29.145608,7.48488352 C29.01075,7.41344886 28.8441136,7.46205114 28.772946,7.59477273 L27.3764318,10.146125 C24.9202813,9.05377557 22.048875,9.06432386 19.6219659,10.1423864 L18.2241165,7.59771023 C18.1513466,7.46338636 17.9841761,7.41491761 17.8519886,7.48808807 C17.7173977,7.56045739 17.6683949,7.72869602 17.7430341,7.86048295 L19.126196,10.3835284 C16.4083409,11.7853835 14.6450398,14.4543693 14.646375,17.5187159 L32.3572301,17.5168466 C32.3574972,14.4530341 30.5851165,11.7895227 27.8714006,10.3843295 L27.8714006,10.3843295 Z M19.4362358,14.2861307 C19.0255199,14.285196 18.6903778,13.9511222 18.6903778,13.5384034 C18.6906449,13.1274205 19.0244517,12.7894744 19.4367699,12.7894744 C19.8506903,12.7892074 20.1851648,13.1274205 20.1859659,13.5382699 C20.1860994,13.9507216 19.8504233,14.2858636 19.4362358,14.2861307 L19.4362358,14.2861307 Z M27.5613608,14.2846619 C27.1487756,14.2850625 26.8130994,13.9505881 26.8130994,13.5366676 C26.8144347,13.1268864 27.1482415,12.7884062 27.5614943,12.787071 C27.9716761,12.7882727 28.3084205,13.1263523 28.3081534,13.5372017 C28.3093551,13.9501875 27.973946,14.2846619 27.5613608,14.2846619 L27.5613608,14.2846619 Z M14.646375,18.2078267 L14.649446,31.0633949 C14.6483778,32.2326534 15.5942528,33.1766591 16.7631108,33.1769261 L18.2039545,33.1774602 L18.2039545,37.5667528 C18.2036875,38.6595028 19.0918807,39.5478295 20.1835625,39.5478295 C21.2780483,39.5478295 22.1647727,38.6588352 22.1650398,37.5651506 L22.1650398,33.1769261 L24.8393665,33.176392 L24.8393665,37.5654176 C24.8393665,38.6576335 25.7278267,39.547696 26.8197756,39.5459602 C27.9139943,39.5466278 28.8004517,38.657233 28.8001847,37.5635483 L28.8001847,33.1757244 L30.2443665,33.1747898 C31.4102869,33.1753239 32.3585653,32.229983 32.3588324,31.0605909 L32.3569631,18.2046222 L14.646375,18.2078267 L14.646375,18.2078267 Z M37.083,19.8115682 C37.082733,18.7176165 36.1957415,17.830892 35.1017898,17.8311591 C34.0081051,17.8302244 33.1213807,18.7185511 33.1216477,19.8125028 L33.122983,28.1080028 C33.122983,29.2031563 34.0091733,30.0884119 35.1039261,30.088679 C36.1978778,30.0884119 37.0840682,29.2031563 37.0843352,28.1070682 L37.083,19.8115682 L37.083,19.8115682 Z" id="android-os-5-icon"></path>
                </g>
            </g>
        </g>
    </g>
</svg>