<?xml version="1.0" encoding="UTF-8" standalone="no"?>
<svg width="26px" height="49px" viewBox="0 0 26 49" version="1.1" xmlns="http://www.w3.org/2000/svg" xmlns:xlink="http://www.w3.org/1999/xlink" xmlns:sketch="http://www.bohemiancoding.com/sketch/ns">
    <!-- Generator: Sketch 3.0.4 (8053) - http://www.bohemiancoding.com/sketch -->
    <title>blackberry</title>
    <desc>Created with Sketch.</desc>
    <defs></defs>
    <g id="Page-1" stroke="none" stroke-width="1" fill="none" fill-rule="evenodd" sketch:type="MSPage">
        <g id="512" sketch:type="MSArtboardGroup" transform="translate(-13.000000, -154.000000)" fill="#FFFFFF">
            <g id="Colene" sketch:type="MSLayerGroup" transform="translate(13.000000, 145.000000)">
                <g id="blackberry" transform="translate(0.000000, 10.000000)" sketch:type="MSShapeGroup">
                    <g id="Group">
                        <path d="M-0.00166666667,3.03889655 L-0.00166666667,44.8708966 C-0.00166666667,46.550069 1.37416667,47.9172414 3.06583333,47.9172414 L21.9908333,47.9172414 C23.6816667,47.9172414 25.0583333,46.5508966 25.0583333,44.8708966 L25.0583333,3.03889655 C25.0583333,1.35972414 23.6825,-0.00744827586 21.9908333,-0.00744827586 L3.06583333,-0.00744827586 C1.375,-0.00744827586 -0.00166666667,1.35972414 -0.00166666667,3.03889655 L-0.00166666667,3.03889655 Z M1.24833333,3.03889655 C1.24833333,2.04413793 2.06333333,1.23393103 3.06583333,1.23393103 L21.9908333,1.23393103 C22.9933333,1.23393103 23.8083333,2.04331034 23.8083333,3.03889655 L23.8083333,3.43448276 L16.0208333,3.43448276 L15.6941667,3.04551724 C15.36,2.64910345 14.4758333,2.43641379 13.8141667,2.43641379 L10.8375,2.43641379 C10.1466667,2.43641379 9.30416667,2.65655172 9.03,3.0777931 L8.79666667,3.43448276 L1.24833333,3.43448276 L1.24833333,3.03889655 L1.24833333,3.03889655 Z M15.2,3.43448276 L9.54166667,3.43448276 L9.555,3.41462069 C9.63416667,3.2937931 10.1583333,3.05710345 10.8375,3.05710345 L13.8141667,3.05710345 C14.4658333,3.05710345 15.05,3.27393103 15.2,3.43448276 L15.2,3.43448276 Z M1.24833333,4.05517241 L23.8083333,4.05517241 L23.8083333,43.550069 L1.24833333,43.550069 L1.24833333,4.05517241 L1.24833333,4.05517241 Z M1.24833333,44.1707586 L23.8083333,44.1707586 L23.8083333,44.8708966 C23.8083333,45.8656552 22.9933333,46.6758621 21.9908333,46.6758621 L3.06583333,46.6758621 C2.06333333,46.6758621 1.24833333,45.8656552 1.24833333,44.8708966 L1.24833333,44.1707586 L1.24833333,44.1707586 Z" id="Shape"></path>
                        <path d="M11.4666667,5.77903448 L13.0691667,5.77903448 C13.3116667,5.77903448 13.5075,5.58289655 13.5075,5.34289655 C13.5075,5.10289655 13.3116667,4.90758621 13.0691667,4.90758621 L11.4666667,4.90758621 C11.2241667,4.90758621 11.0283333,5.10289655 11.0283333,5.34289655 C11.0275,5.58289655 11.2241667,5.77903448 11.4666667,5.77903448 L11.4666667,5.77903448 Z" id="Shape"></path>
                        <ellipse id="Oval" cx="17.2775" cy="5.57213793" rx="0.610833333" ry="0.60662069"></ellipse>
                        <ellipse id="Oval" cx="21.9833333" cy="5.28" rx="0.316666667" ry="0.314482759"></ellipse>
                        <path d="M22.6266667,6.41627586 L2.17583333,6.41627586 C2.00333333,6.41627586 1.86333333,6.55531034 1.86333333,6.72662069 L1.86333333,40.2231724 C1.86333333,40.3944828 2.00333333,40.5335172 2.17583333,40.5335172 L22.6266667,40.5335172 C22.7991667,40.5335172 22.9391667,40.3944828 22.9391667,40.2231724 L22.9391667,6.72662069 C22.9391667,6.55531034 22.7991667,6.41627586 22.6266667,6.41627586 L22.6266667,6.41627586 Z M22.3141667,39.912 L2.48833333,39.912 L2.48833333,7.03696552 L22.3141667,7.03696552 L22.3141667,39.912 L22.3141667,39.912 Z" id="Shape"></path>
                    </g>
                </g>
            </g>
        </g>
    </g>
</svg>