<?xml version="1.0" encoding="UTF-8" standalone="no"?>
<svg width="20px" height="33px" viewBox="0 0 20 33" version="1.1" xmlns="http://www.w3.org/2000/svg" xmlns:xlink="http://www.w3.org/1999/xlink" xmlns:sketch="http://www.bohemiancoding.com/sketch/ns">
    <!-- Generator: Sketch 3.0.4 (8053) - http://www.bohemiancoding.com/sketch -->
    <title>blackberry</title>
    <desc>Created with Sketch.</desc>
    <defs></defs>
    <g id="Page-1" stroke="none" stroke-width="1" fill="none" fill-rule="evenodd" sketch:type="MSPage">
        <g id="512" sketch:type="MSArtboardGroup" transform="translate(-313.000000, -437.000000)" fill="#FFFFFF">
            <g id="blackberry" sketch:type="MSLayerGroup" transform="translate(313.000000, 437.000000)">
                <path d="M19.920313,15.8736275 C19.920313,19.4614295 19.930938,23.0492314 19.916563,26.6370334 C19.907188,29.0142215 18.7456255,30.7054691 16.487188,31.3077661 C12.2356255,32.4417067 7.92625052,32.3688354 3.66000052,31.4316473 C1.34375052,30.9228156 0.0100005203,29.0002809 0.00562552031,26.5575087 C-0.00624947969,19.3819047 0.00218802031,12.2059839 0.0168755203,5.03037995 C0.0215630203,2.66649876 1.00562552,1.20622153 3.33531302,0.716716583 C7.54437552,-0.167560645 11.8256255,-0.269263615 16.039063,0.611845296 C19.1118755,1.25437995 19.933438,2.5559245 19.9343755,5.74325124 C19.9356255,9.12004332 19.934688,12.4968354 19.934688,15.8736275 L19.920313,15.8736275 L19.920313,15.8736275 Z M17.5956255,16.0722809 L17.5956255,6.0119245 L2.33656302,6.0119245 L2.33656302,16.0722809 L17.5956255,16.0722809 Z M16.25,26.2970297 C16.767767,26.2970297 17.1875,25.8714786 17.1875,25.3465347 C17.1875,24.8215907 16.767767,24.3960396 16.25,24.3960396 C15.732233,24.3960396 15.3125,24.8215907 15.3125,25.3465347 C15.3125,25.8714786 15.732233,26.2970297 16.25,26.2970297 Z M16.25,23.1287129 C16.767767,23.1287129 17.1875,22.7031617 17.1875,22.1782178 C17.1875,21.6532739 16.767767,21.2277228 16.25,21.2277228 C15.732233,21.2277228 15.3125,21.6532739 15.3125,22.1782178 C15.3125,22.7031617 15.732233,23.1287129 16.25,23.1287129 Z M13.75,26.2970297 C14.267767,26.2970297 14.6875,25.8714786 14.6875,25.3465347 C14.6875,24.8215907 14.267767,24.3960396 13.75,24.3960396 C13.232233,24.3960396 12.8125,24.8215907 12.8125,25.3465347 C12.8125,25.8714786 13.232233,26.2970297 13.75,26.2970297 Z M13.75,23.1287129 C14.267767,23.1287129 14.6875,22.7031617 14.6875,22.1782178 C14.6875,21.6532739 14.267767,21.2277228 13.75,21.2277228 C13.232233,21.2277228 12.8125,21.6532739 12.8125,22.1782178 C12.8125,22.7031617 13.232233,23.1287129 13.75,23.1287129 Z M3.75,23.1287129 C4.26776695,23.1287129 4.6875,22.7031617 4.6875,22.1782178 C4.6875,21.6532739 4.26776695,21.2277228 3.75,21.2277228 C3.23223305,21.2277228 2.8125,21.6532739 2.8125,22.1782178 C2.8125,22.7031617 3.23223305,23.1287129 3.75,23.1287129 Z M3.75,25.980198 C4.26776695,25.980198 4.6875,25.5546469 4.6875,25.029703 C4.6875,24.504759 4.26776695,24.0792079 3.75,24.0792079 C3.23223305,24.0792079 2.8125,24.504759 2.8125,25.029703 C2.8125,25.5546469 3.23223305,25.980198 3.75,25.980198 Z M3.75,29.4653465 C4.26776695,29.4653465 4.6875,29.0397954 4.6875,28.5148515 C4.6875,27.9899076 4.26776695,27.5643564 3.75,27.5643564 C3.23223305,27.5643564 2.8125,27.9899076 2.8125,28.5148515 C2.8125,29.0397954 3.23223305,29.4653465 3.75,29.4653465 Z M6.875,29.4653465 C7.39276695,29.4653465 7.8125,29.0397954 7.8125,28.5148515 C7.8125,27.9899076 7.39276695,27.5643564 6.875,27.5643564 C6.35723305,27.5643564 5.9375,27.9899076 5.9375,28.5148515 C5.9375,29.0397954 6.35723305,29.4653465 6.875,29.4653465 Z M10,29.4653465 C10.517767,29.4653465 10.9375,29.0397954 10.9375,28.5148515 C10.9375,27.9899076 10.517767,27.5643564 10,27.5643564 C9.48223305,27.5643564 9.0625,27.9899076 9.0625,28.5148515 C9.0625,29.0397954 9.48223305,29.4653465 10,29.4653465 Z M16.25,29.4653465 C16.767767,29.4653465 17.1875,29.0397954 17.1875,28.5148515 C17.1875,27.9899076 16.767767,27.5643564 16.25,27.5643564 C15.732233,27.5643564 15.3125,27.9899076 15.3125,28.5148515 C15.3125,29.0397954 15.732233,29.4653465 16.25,29.4653465 Z M13.125,29.4653465 C13.642767,29.4653465 14.0625,29.0397954 14.0625,28.5148515 C14.0625,27.9899076 13.642767,27.5643564 13.125,27.5643564 C12.607233,27.5643564 12.1875,27.9899076 12.1875,28.5148515 C12.1875,29.0397954 12.607233,29.4653465 13.125,29.4653465 Z M11.25,26.2970297 C11.767767,26.2970297 12.1875,25.8714786 12.1875,25.3465347 C12.1875,24.8215907 11.767767,24.3960396 11.25,24.3960396 C10.732233,24.3960396 10.3125,24.8215907 10.3125,25.3465347 C10.3125,25.8714786 10.732233,26.2970297 11.25,26.2970297 Z M8.75,26.2970297 C9.26776695,26.2970297 9.6875,25.8714786 9.6875,25.3465347 C9.6875,24.8215907 9.26776695,24.3960396 8.75,24.3960396 C8.23223305,24.3960396 7.8125,24.8215907 7.8125,25.3465347 C7.8125,25.8714786 8.23223305,26.2970297 8.75,26.2970297 Z M6.25,26.2970297 C6.76776695,26.2970297 7.1875,25.8714786 7.1875,25.3465347 C7.1875,24.8215907 6.76776695,24.3960396 6.25,24.3960396 C5.73223305,24.3960396 5.3125,24.8215907 5.3125,25.3465347 C5.3125,25.8714786 5.73223305,26.2970297 6.25,26.2970297 Z M6.25,23.1287129 C6.76776695,23.1287129 7.1875,22.7031617 7.1875,22.1782178 C7.1875,21.6532739 6.76776695,21.2277228 6.25,21.2277228 C5.73223305,21.2277228 5.3125,21.6532739 5.3125,22.1782178 C5.3125,22.7031617 5.73223305,23.1287129 6.25,23.1287129 Z M8.75,23.1287129 C9.26776695,23.1287129 9.6875,22.7031617 9.6875,22.1782178 C9.6875,21.6532739 9.26776695,21.2277228 8.75,21.2277228 C8.23223305,21.2277228 7.8125,21.6532739 7.8125,22.1782178 C7.8125,22.7031617 8.23223305,23.1287129 8.75,23.1287129 Z M11.25,23.1287129 C11.767767,23.1287129 12.1875,22.7031617 12.1875,22.1782178 C12.1875,21.6532739 11.767767,21.2277228 11.25,21.2277228 C10.732233,21.2277228 10.3125,21.6532739 10.3125,22.1782178 C10.3125,22.7031617 10.732233,23.1287129 11.25,23.1287129 Z M16.25,19.960396 C16.767767,19.960396 17.1875,19.5348449 17.1875,19.009901 C17.1875,18.4849571 16.767767,18.0594059 16.25,18.0594059 C15.732233,18.0594059 15.3125,18.4849571 15.3125,19.009901 C15.3125,19.5348449 15.732233,19.960396 16.25,19.960396 Z M13.125,19.960396 C13.642767,19.960396 14.0625,19.5348449 14.0625,19.009901 C14.0625,18.4849571 13.642767,18.0594059 13.125,18.0594059 C12.607233,18.0594059 12.1875,18.4849571 12.1875,19.009901 C12.1875,19.5348449 12.607233,19.960396 13.125,19.960396 Z M10,19.960396 C10.517767,19.960396 10.9375,19.5348449 10.9375,19.009901 C10.9375,18.4849571 10.517767,18.0594059 10,18.0594059 C9.48223305,18.0594059 9.0625,18.4849571 9.0625,19.009901 C9.0625,19.5348449 9.48223305,19.960396 10,19.960396 Z M6.875,19.960396 C7.39276695,19.960396 7.8125,19.5348449 7.8125,19.009901 C7.8125,18.4849571 7.39276695,18.0594059 6.875,18.0594059 C6.35723305,18.0594059 5.9375,18.4849571 5.9375,19.009901 C5.9375,19.5348449 6.35723305,19.960396 6.875,19.960396 Z M3.75,19.960396 C4.26776695,19.960396 4.6875,19.5348449 4.6875,19.009901 C4.6875,18.4849571 4.26776695,18.0594059 3.75,18.0594059 C3.23223305,18.0594059 2.8125,18.4849571 2.8125,19.009901 C2.8125,19.5348449 3.23223305,19.960396 3.75,19.960396 Z" id="Imported-Layers" sketch:type="MSShapeGroup"></path>
            </g>
        </g>
    </g>
</svg>