<?xml version="1.0" encoding="UTF-8" standalone="no"?>
<svg width="45px" height="47px" viewBox="0 0 45 47" version="1.1" xmlns="http://www.w3.org/2000/svg" xmlns:xlink="http://www.w3.org/1999/xlink" xmlns:sketch="http://www.bohemiancoding.com/sketch/ns">
    <!-- Generator: Sketch 3.0.4 (8053) - http://www.bohemiancoding.com/sketch -->
    <title>books</title>
    <desc>Created with Sketch.</desc>
    <defs></defs>
    <g id="Page-1" stroke="none" stroke-width="1" fill="none" fill-rule="evenodd" sketch:type="MSPage">
        <g id="512" sketch:type="MSArtboardGroup" transform="translate(-245.000000, -224.000000)">
            <g id="John" sketch:type="MSLayerGroup" transform="translate(60.000000, 224.000000)">
                <g id="books" transform="translate(184.000000, 0.000000)">
                    <g id="Captions"></g>
                    <g id="Your_Icon" transform="translate(0.940000, 0.470000)" fill="#000000" sketch:type="MSShapeGroup">
                        <path d="M44.88594,26.08641 C44.88547,26.07325 44.88453,26.05915 44.88406,26.04599 C44.88406,26.04129 44.88406,26.03612 44.88171,26.03001 C44.8803,26.01121 44.87842,25.99194 44.8756,25.9722 C44.87231,25.95246 44.86902,25.93319 44.86573,25.91251 C44.8615,25.89277 44.8568,25.87115 44.8521,25.85047 C44.8474,25.82744 44.84223,25.80582 44.83659,25.78373 C44.83612,25.77997 44.83424,25.77621 44.83377,25.77245 C44.83283,25.7701 44.83236,25.76822 44.83095,25.76587 C44.82719,25.74848 44.82155,25.73203 44.81638,25.71511 C44.80886,25.6902 44.8004,25.66482 44.79053,25.63944 C44.7816,25.61218 44.77079,25.58586 44.75998,25.55907 C44.75246,25.5398 44.74353,25.52006 44.73507,25.50079 C44.73272,25.49609 44.73084,25.49092 44.72849,25.48622 C44.72661,25.48293 44.72473,25.47823 44.72238,25.474 C44.71063,25.44533 44.69418,25.41384 44.67914,25.38376 C44.66222,25.34992 44.64342,25.31655 44.62462,25.28365 C44.61475,25.26861 44.60582,25.25404 44.59595,25.23947 C44.58843,25.22631 44.58091,25.21315 44.57245,25.2014 C44.56117,25.18401 44.55177,25.16709 44.54143,25.15064 C44.51182,25.10646 44.47845,25.06463 44.44602,25.0228 C44.42816,24.99836 44.41218,24.97392 44.39338,24.95042 C44.38821,24.94478 44.38492,24.94008 44.38022,24.93397 C44.35108,24.89778 44.32006,24.86253 44.28857,24.82775 C44.26601,24.80331 44.24392,24.77981 44.22183,24.75725 C44.21196,24.74785 44.20115,24.73798 44.19175,24.72811 C44.1894,24.72623 44.18846,24.72435 44.18517,24.72153 C44.17718,24.71401 44.1706,24.70696 44.16261,24.69944 C44.14334,24.68064 44.12454,24.66419 44.10621,24.6468 C44.08741,24.62988 44.06814,24.6139 44.05075,24.59792 C44.03242,24.58288 44.01362,24.56643 43.99388,24.55139 C43.98025,24.53964 43.96474,24.52742 43.94876,24.5152 L43.94735,24.51473 C43.94406,24.51191 43.94124,24.51003 43.93748,24.50721 C43.91962,24.49405 43.90176,24.48042 43.88202,24.46632 C43.86228,24.45269 43.84536,24.44 43.82609,24.42684 C43.80729,24.41509 43.78849,24.40287 43.76922,24.39018 C43.75183,24.3789 43.73256,24.36762 43.71376,24.35681 C43.70577,24.35164 43.69731,24.34694 43.68885,24.34224 C43.68603,24.3413 43.68603,24.3413 43.68462,24.34036 C43.67475,24.33519 43.66582,24.33049 43.65736,24.32532 C43.6395,24.31545 43.61929,24.30464 43.60096,24.29524 C43.5831,24.28584 43.56383,24.27691 43.54503,24.26798 C43.52717,24.25905 43.5079,24.25059 43.48816,24.24213 C43.46936,24.23414 43.45103,24.22615 43.43176,24.2191 C43.42471,24.21534 43.41766,24.21299 43.41108,24.21017 L43.39087,24.22991 C43.37254,24.20782 43.35656,24.18573 43.33541,24.16552 C42.79914,23.65369 42.49364,22.96373 42.47719,22.22301 C42.46638,21.79202 42.56555,21.37889 42.74086,20.99866 C43.19441,20.58741 43.63151,20.19214 44.04323,19.8199 C44.06391,19.79969 44.08506,19.77854 44.1048,19.75551 C44.1189,19.73765 44.13394,19.71791 44.14804,19.69817 C44.14992,19.69488 44.15086,19.69112 44.15274,19.68877 C44.15462,19.68595 44.15603,19.6836 44.15838,19.68078 C44.1659,19.66856 44.17389,19.65634 44.18094,19.64318 C44.1894,19.62673 44.19833,19.60981 44.20585,19.59336 C44.2129,19.57691 44.21901,19.55952 44.22559,19.54307 C44.22841,19.53602 44.23076,19.52897 44.23311,19.52239 C44.23405,19.52004 44.23499,19.51769 44.23593,19.51534 C44.23781,19.50829 44.24063,19.5003 44.24298,19.49325 C44.24721,19.4768 44.25191,19.46129 44.2552,19.44484 C44.25943,19.42792 44.26319,19.41194 44.26507,19.39455 C44.26789,19.37857 44.27118,19.36212 44.27259,19.3452 C44.274,19.33815 44.27447,19.3311 44.27494,19.32452 C44.27588,19.32311 44.27541,19.32076 44.27635,19.31888 C44.27635,19.31089 44.27823,19.3029 44.27823,19.29491 C44.27964,19.27799 44.28011,19.26154 44.28058,19.24415 C44.28199,19.22629 44.28199,19.20937 44.28058,19.19104 C44.28152,19.17365 44.28011,19.15579 44.2787,19.13652 C44.2787,19.12336 44.27729,19.11067 44.27682,19.09657 C44.27541,19.09093 44.274,19.08576 44.27447,19.07965 C44.27259,19.06132 44.26977,19.04158 44.26742,19.02231 C44.26507,19.00257 44.26131,18.98283 44.25755,18.96262 C44.25332,18.94194 44.24909,18.92126 44.24486,18.90011 C44.23875,18.87755 44.23358,18.85546 44.22841,18.83337 C44.227,18.83055 44.22653,18.82773 44.227,18.82585 C44.22465,18.82115 44.22324,18.81645 44.22136,18.81269 C44.21807,18.79624 44.21243,18.78026 44.2082,18.76428 C44.20068,18.73937 44.19175,18.71352 44.18282,18.68814 C44.17342,18.66135 44.16261,18.63409 44.15227,18.60777 C44.14428,18.5885 44.13535,18.56876 44.12689,18.54949 C44.12407,18.54526 44.12313,18.54056 44.12031,18.53586 C44.1189,18.53163 44.11702,18.52693 44.11467,18.52223 C44.10151,18.49215 44.08553,18.46113 44.06955,18.43152 C44.05263,18.39768 44.0343,18.36384 44.01503,18.33047 C44.00798,18.31919 44.0014,18.30838 43.99388,18.2971 C40.48486,21.47712 35.69368,25.8171 31.64087,29.48733 L25.991,34.60187 L24.28725,36.14347 C23.99679,36.40573 23.81866,36.56694 23.69928,36.66564 L23.70163,36.66705 C23.48073,36.92367 23.15549,37.06514 22.78466,37.06514 C22.58068,37.06514 22.36636,37.02331 22.14781,36.93965 L19.27047,35.8469 L19.23193,35.86993 L19.26107,35.84267 L3.17438,29.73079 C2.61649,29.51835 2.07599,29.15786 1.60834,28.69538 L0.66599,29.5489 C0.66599,29.55031 0.66552,29.55125 0.66364,29.55125 L0.65988,29.55642 C0.66035,29.55501 0.66082,29.55454 0.6627,29.55407 C0.35203,29.83419 0.18894,30.28821 0.2397,30.8602 L0.66505,35.65138 C0.72427,36.3122 1.05233,37.02331 1.53455,37.61974 C2.00784,38.21523 2.6508,38.72189 3.33042,38.98039 L22.30385,46.19066 C22.76586,46.3655 23.1522,46.29406 23.36793,46.04214 C23.34631,46.06893 37.53514,33.2196 44.65188,26.76932 C44.67256,26.74958 44.69371,26.72843 44.71298,26.70587 C44.72896,26.68707 44.74306,26.66874 44.75669,26.64853 C44.75951,26.6443 44.75998,26.64054 44.76327,26.63819 C44.76468,26.63631 44.76562,26.63443 44.76562,26.63302 C44.77408,26.62033 44.7816,26.6067 44.78959,26.59307 C44.79946,26.57803 44.80698,26.56064 44.81403,26.54278 C44.82296,26.52727 44.82907,26.51035 44.83612,26.49343 C44.83894,26.48638 44.83941,26.47933 44.84129,26.47275 C44.84223,26.46993 44.8427,26.46852 44.84364,26.46664 C44.84646,26.45865 44.84928,26.4516 44.85257,26.44361 C44.85727,26.42763 44.86056,26.41165 44.86479,26.39473 C44.86855,26.37875 44.87137,26.3623 44.87419,26.34491 C44.87795,26.32987 44.8803,26.31295 44.88312,26.29603 C44.88312,26.28898 44.88453,26.28193 44.88594,26.27488 C44.885,26.27253 44.88547,26.27112 44.885,26.26924 C44.88641,26.26125 44.88735,26.25279 44.88688,26.2448 C44.88829,26.22835 44.89017,26.2119 44.8897,26.19404 C44.89017,26.17665 44.89064,26.15926 44.89064,26.1414 C44.88876,26.12307 44.88735,26.10474 44.88594,26.08641 L44.88594,26.08641 Z M22.66387,43.01346 L22.66622,43.01158 C22.18682,43.38335 21.7751,43.43317 21.38359,43.28465 L4.51811,36.8762 C4.136,36.7211 3.39246,36.51383 3.30645,35.8845 L3.08226,33.36671 C3.03667,32.84313 3.45356,32.32519 3.94847,32.5146 L21.68768,39.2544 C22.13747,39.42501 22.51253,39.36015 22.73108,39.12562 C22.71933,39.13784 33.57821,29.30215 41.06437,22.51864 C41.15085,23.53572 41.59312,24.47431 42.33337,25.18777 L22.66387,43.01346 L22.66387,43.01346 Z" id="Shape"></path>
                        <path d="M44.88594,15.98658 C44.88547,15.97342 44.88453,15.95932 44.88406,15.94616 C44.88406,15.94146 44.88406,15.93629 44.88171,15.93018 C44.8803,15.91138 44.87842,15.89164 44.8756,15.8719 C44.87231,15.85216 44.86902,15.83289 44.86573,15.81315 C44.8615,15.79294 44.8568,15.77179 44.8521,15.75064 C44.8474,15.72808 44.84223,15.70599 44.83659,15.68437 C44.83612,15.68014 44.83424,15.67638 44.83377,15.67262 C44.83283,15.67027 44.83236,15.66839 44.83095,15.66604 C44.82719,15.64865 44.82155,15.63173 44.81638,15.61481 C44.80886,15.59037 44.8004,15.56499 44.79053,15.53961 C44.7816,15.51282 44.77079,15.48556 44.75998,15.45924 C44.75246,15.4395 44.74353,15.42023 44.73507,15.40096 C44.73272,15.39579 44.73084,15.39109 44.72849,15.38592 C44.72661,15.38263 44.72473,15.37793 44.72238,15.3737 C44.71063,15.34456 44.69418,15.31401 44.67914,15.28346 C44.66222,15.25009 44.64342,15.21672 44.62462,15.18382 C44.61475,15.16831 44.60582,15.15421 44.59595,15.13964 C44.58843,15.12648 44.58091,15.11332 44.57245,15.10157 C44.56117,15.08371 44.55177,15.06726 44.54143,15.05081 C44.51182,15.00663 44.47845,14.9648 44.44602,14.92297 C44.42816,14.899 44.41218,14.87409 44.39338,14.85059 C44.38821,14.84495 44.38492,14.83978 44.38022,14.83367 C44.35108,14.79795 44.32006,14.7627 44.28857,14.72839 C44.26601,14.70348 44.24392,14.67998 44.22183,14.65742 C44.21196,14.64755 44.20115,14.63815 44.19175,14.62828 C44.1894,14.6264 44.18846,14.62405 44.18517,14.6217 C44.17718,14.61418 44.1706,14.60666 44.16261,14.60008 C44.14334,14.58128 44.12454,14.56436 44.10621,14.54697 C44.08741,14.53005 44.06814,14.51407 44.05075,14.49809 C44.03242,14.48258 44.01362,14.46707 43.99388,14.45203 C43.98025,14.43981 43.96474,14.42759 43.94876,14.41584 L43.94735,14.4149 C43.94406,14.41255 43.94124,14.4102 43.93748,14.40738 C43.91962,14.39375 43.90176,14.38059 43.88202,14.36649 C43.86228,14.35333 43.84536,14.34017 43.82609,14.32748 C43.80729,14.31573 43.78849,14.30351 43.76922,14.29082 C43.75183,14.27954 43.73256,14.26826 43.71376,14.25698 C43.70577,14.25181 43.69731,14.24711 43.68885,14.24241 C43.68603,14.24147 43.68603,14.241 43.68462,14.24053 C43.67475,14.23536 43.66582,14.23019 43.65736,14.22502 C43.6395,14.21515 43.61929,14.20481 43.60096,14.19494 C43.5831,14.18554 43.56383,14.17661 43.54503,14.16768 C43.52717,14.15875 43.5079,14.15029 43.48816,14.14183 C43.46936,14.13431 43.45103,14.12538 43.43176,14.11833 C43.42471,14.11551 43.41766,14.11316 43.41108,14.11034 L43.39087,14.12961 C43.37254,14.10799 43.35656,14.0859 43.33541,14.06616 C42.79914,13.5548 42.49364,12.86437 42.47719,12.12365 C42.46638,11.69266 42.56555,11.27953 42.74086,10.8993 C43.19441,10.48805 43.63151,10.09278 44.04323,9.72054 C44.06391,9.70033 44.08506,9.67918 44.1048,9.65615 C44.1189,9.63782 44.13394,9.61808 44.14804,9.59881 C44.14992,9.59505 44.15086,9.59176 44.15274,9.58941 C44.15462,9.58659 44.15603,9.58424 44.15838,9.58142 C44.1659,9.56967 44.17389,9.55745 44.18094,9.54382 C44.1894,9.52737 44.19833,9.51045 44.20585,9.494 C44.2129,9.47755 44.21901,9.46063 44.22559,9.44371 C44.22841,9.43666 44.23076,9.42961 44.23311,9.42303 C44.23405,9.42068 44.23499,9.41833 44.23593,9.41598 C44.23781,9.40846 44.24063,9.40094 44.24298,9.39342 C44.24721,9.3765 44.25191,9.36146 44.2552,9.34501 C44.25943,9.32809 44.26319,9.31211 44.26507,9.29519 C44.26789,9.27921 44.27118,9.26276 44.27259,9.24537 C44.274,9.23879 44.27447,9.23174 44.27494,9.22469 C44.27588,9.22281 44.27541,9.22093 44.27635,9.21905 C44.27635,9.21106 44.27823,9.2026 44.27823,9.19508 C44.27964,9.17816 44.28011,9.16171 44.28058,9.14432 C44.28199,9.12646 44.28199,9.10954 44.28058,9.09121 C44.28152,9.07335 44.28011,9.05549 44.2787,9.03669 C44.2787,9.02353 44.27729,9.01037 44.27682,8.99674 C44.27541,8.99157 44.274,8.98593 44.27447,8.98029 C44.27259,8.96149 44.26977,8.94175 44.26742,8.92248 C44.26507,8.90274 44.26131,8.883 44.25755,8.86279 C44.25332,8.84211 44.24909,8.82143 44.24486,8.80028 C44.23875,8.77772 44.23358,8.7561 44.22841,8.73401 C44.227,8.73119 44.22653,8.72837 44.227,8.72602 C44.22465,8.72085 44.22324,8.71709 44.22136,8.71333 C44.21807,8.69688 44.21243,8.68043 44.2082,8.66492 C44.20068,8.64001 44.19175,8.61416 44.18282,8.58878 C44.17342,8.56199 44.16261,8.53473 44.15227,8.50794 C44.14428,8.48867 44.13535,8.46893 44.12689,8.44966 C44.12407,8.44496 44.12313,8.44073 44.12031,8.43603 C44.1189,8.4318 44.11702,8.4271 44.11467,8.4224 C44.10151,8.39232 44.08553,8.3613 44.06955,8.33122 C44.05263,8.29738 44.0343,8.26354 44.01503,8.23064 C44.00563,8.2156 43.99717,8.20197 43.98777,8.1874 C43.98072,8.17518 43.97273,8.16249 43.96474,8.14933 C43.95299,8.131 43.94218,8.11267 43.9309,8.09575 C43.90223,8.05345 43.8698,8.01303 43.83925,7.97167 C43.82045,7.94676 43.80306,7.92138 43.78379,7.89694 C43.77909,7.8913 43.77533,7.88519 43.77063,7.87955 C43.74102,7.84336 43.71,7.80764 43.67851,7.7738 C43.65642,7.74889 43.63386,7.72586 43.61083,7.70236 C43.60143,7.69296 43.59438,7.68544 43.58498,7.67698 C43.58169,7.67463 43.5784,7.67087 43.57511,7.66758 C43.56712,7.66006 43.56054,7.6516 43.55161,7.64408 C43.53281,7.62622 43.51354,7.60883 43.49474,7.59238 C43.47641,7.57546 43.45761,7.55901 43.43881,7.54256 C43.42048,7.52705 43.40262,7.51201 43.38335,7.49697 C43.36972,7.48663 43.35562,7.47535 43.34199,7.46501 C43.34011,7.4636 43.3387,7.46219 43.33682,7.46125 C43.334,7.45843 43.33071,7.45608 43.32789,7.4542 C43.30862,7.4401 43.28935,7.42506 43.27055,7.41237 C43.25269,7.39874 43.23342,7.38652 43.21556,7.37383 C43.19582,7.36067 43.17796,7.34892 43.15822,7.3367 C43.14083,7.32542 43.12062,7.31414 43.10323,7.30333 C43.09477,7.29863 43.08772,7.2944 43.0802,7.29017 C43.07926,7.28923 43.07644,7.28829 43.07503,7.28735 C43.0661,7.28218 43.05623,7.27654 43.0473,7.27137 C43.02756,7.26103 43.01017,7.25163 42.99231,7.24176 C42.97304,7.23236 42.95424,7.22343 42.93544,7.2145 C42.91711,7.20557 42.89784,7.19711 42.87951,7.18865 C42.85977,7.18066 42.84144,7.17314 42.82358,7.16515 C42.81512,7.16233 42.80901,7.15998 42.80149,7.15716 L23.82994,-0.05264 C23.80832,-0.06063 23.78623,-0.06909 23.76461,-0.07708 C23.7303,-0.08883 23.69458,-0.10011 23.66027,-0.11186 C23.62408,-0.12314 23.58836,-0.13348 23.55311,-0.14288 C23.51457,-0.15322 23.47979,-0.16168 23.44219,-0.17014 C23.40929,-0.17766 23.37592,-0.18424 23.34396,-0.18988 C23.34255,-0.18988 23.3402,-0.19035 23.33879,-0.19035 C23.33409,-0.19129 23.32986,-0.19223 23.3261,-0.1927 C23.2838,-0.20022 23.24291,-0.20586 23.20155,-0.21103 C23.15596,-0.21667 23.11272,-0.22043 23.06854,-0.22278 C23.01684,-0.22607 22.96561,-0.22654 22.91579,-0.22607 C22.90968,-0.22513 22.90545,-0.22466 22.89981,-0.22419 C22.89182,-0.22466 22.88524,-0.22372 22.87866,-0.22278 C22.8279,-0.2209 22.77855,-0.21808 22.73108,-0.2115 C22.67515,-0.20492 22.62721,-0.18753 22.57457,-0.17578 C22.53744,-0.16591 22.49937,-0.16027 22.46365,-0.14852 C22.3532,-0.11233 22.24839,-0.06768 22.15721,-0.00705 C22.1041,0.02726 22.05428,0.06486 22.00869,0.10716 L0.66599,19.4486 C0.66599,19.44954 0.66552,19.45048 0.66364,19.45095 L0.65988,19.45565 C0.66035,19.45424 0.66082,19.45377 0.6627,19.45377 C0.35203,19.73342 0.18894,20.18791 0.2397,20.7599 L0.66505,25.55155 C0.72427,26.21237 1.05233,26.92348 1.53455,27.51991 C2.00784,28.1154 2.6508,28.62206 3.33042,28.88056 L22.30385,36.0913 C22.76586,36.26614 23.1522,36.19423 23.36793,35.94231 C23.34631,35.96863 37.53514,23.1193 44.65188,16.66949 C44.67256,16.64975 44.69371,16.6286 44.71298,16.60557 C44.72896,16.58677 44.74306,16.56844 44.75669,16.54823 C44.75951,16.54447 44.75998,16.54071 44.76327,16.53789 C44.76468,16.53601 44.76562,16.5346 44.76562,16.53272 C44.77408,16.51956 44.7816,16.5064 44.78959,16.49324 C44.79946,16.4782 44.80698,16.46081 44.81403,16.44248 C44.82296,16.42744 44.82907,16.41052 44.83612,16.39313 C44.83894,16.38608 44.83941,16.37903 44.84129,16.37198 C44.84223,16.36963 44.8427,16.36822 44.84364,16.36587 C44.84646,16.35835 44.84928,16.35083 44.85257,16.34284 C44.85727,16.32733 44.86056,16.31088 44.86479,16.29443 C44.86855,16.27798 44.87137,16.26153 44.87419,16.24414 C44.87795,16.2291 44.8803,16.21218 44.88312,16.19526 C44.88312,16.18868 44.88453,16.18069 44.88594,16.17364 C44.885,16.17176 44.88547,16.17035 44.885,16.16847 C44.88641,16.16095 44.88735,16.15249 44.88688,16.1445 C44.88829,16.12758 44.89017,16.11113 44.8897,16.09327 C44.89017,16.07635 44.89064,16.05896 44.89064,16.0411 C44.88876,16.02324 44.88735,16.00444 44.88594,15.98658 L44.88594,15.98658 Z M22.66387,32.91316 L22.66622,32.91175 C22.18682,33.28305 21.7751,33.33287 21.38359,33.18435 L4.51811,26.7759 C4.136,26.62174 3.39246,26.41447 3.30645,25.78467 L3.08226,23.26641 C3.03667,22.74283 3.45356,22.22536 3.94847,22.41383 L21.68768,29.1541 C22.13747,29.32471 22.51253,29.25985 22.73108,29.02579 C22.71933,29.03754 33.57821,19.20185 41.06437,12.41834 C41.15085,13.43542 41.59312,14.37448 42.33337,15.087 L22.66387,32.91316 L22.66387,32.91316 Z" id="Shape"></path>
                    </g>
                </g>
            </g>
        </g>
    </g>
</svg>