<?xml version="1.0" encoding="utf-8"?>
<!-- Generator: Adobe Illustrator 18.0.0, SVG Export Plug-In . SVG Version: 6.00 Build 0)  -->
<!DOCTYPE svg PUBLIC "-//W3C//DTD SVG 1.1//EN" "http://www.w3.org/Graphics/SVG/1.1/DTD/svg11.dtd">
<svg version="1.1" id="Layer_1" xmlns="http://www.w3.org/2000/svg" xmlns:xlink="http://www.w3.org/1999/xlink" x="0px" y="0px"
	 viewBox="0 0 34 49.4" enable-background="new 0 0 34 49.4" xml:space="preserve">
<path fill="#6D6E71" d="M33.8,7.8c-0.2-0.2-0.4-0.2-0.6-0.2h0l-5.3,0c-0.5,0-0.8,0.4-0.8,0.8v5.3c0,0.5,0.4,0.8,0.8,0.8l0.8,0v3.6
	l-10.3,6.5l0-16.9l1.8,0h0c0.3,0,0.6-0.2,0.7-0.4c0.2-0.3,0.2-0.6,0-0.8l-3.5-6.1c-0.3-0.5-1.2-0.5-1.4,0l-3.5,6.1
	c-0.2,0.3-0.2,0.6,0,0.8c0.1,0.3,0.4,0.4,0.7,0.4h0l1.8,0l0,24.4L5.2,25v-4.2C6.3,20.2,7,19,7,17.7c0-1.9-1.6-3.5-3.5-3.5
	c-1.9,0-3.5,1.6-3.5,3.5c0,1.2,0.6,2.4,1.7,3v5.1c0,0.5,0.2,0.9,0.5,1.2c0,0,0.1,0.1,0.1,0.1l12.7,9.6v2.5c-2.1,0.7-3.5,2.7-3.5,5
	c0,2.9,2.4,5.3,5.3,5.3c1.4,0,2.7-0.5,3.7-1.5c1-1,1.5-2.3,1.5-3.7c0-2.2-1.4-4.2-3.5-5v-9.9l13.2-8.9c0,0,0.1-0.1,0.1-0.1
	c0.3-0.3,0.5-0.8,0.5-1.2v-4.5l0.9,0c0.5,0,0.8-0.4,0.8-0.8V8.4C34,8.2,33.9,8,33.8,7.8z"/>
</svg>
