<?xml version="1.0" encoding="UTF-8" standalone="no"?>
<svg width="47px" height="47px" viewBox="0 0 47 47" version="1.1" xmlns="http://www.w3.org/2000/svg" xmlns:xlink="http://www.w3.org/1999/xlink" xmlns:sketch="http://www.bohemiancoding.com/sketch/ns">
    <!-- Generator: Sketch 3.0.4 (8053) - http://www.bohemiancoding.com/sketch -->
    <title>candybag</title>
    <desc>Created with Sketch.</desc>
    <defs></defs>
    <g id="Page-1" stroke="none" stroke-width="1" fill="none" fill-rule="evenodd" sketch:type="MSPage">
        <g id="512" sketch:type="MSArtboardGroup" transform="translate(-244.000000, -287.000000)" fill="#FFFFFF">
            <g id="Deepa" sketch:type="MSLayerGroup" transform="translate(13.000000, 283.000000)">
                <g id="candybag" transform="translate(232.000000, 4.000000)" sketch:type="MSShapeGroup">
                    <path d="M31.5687273,15.5859231 L33.5961818,15.8344808 C33.5603636,15.8753346 33.5254545,15.9170923 33.4929091,15.9610192 C32.5852727,17.1832 33.3638182,19.2868115 35.2336364,20.65885 C36.9381818,21.9101346 38.9616364,22.12055 39.9923636,21.2201385 L40.4712727,23.2561423 L41.0629091,21.8436115 L42.3772727,20.9753769 L40.3183636,20.8484769 C41.1343636,19.6161731 40.3503636,17.5736615 38.5210909,16.2318115 C36.924,15.0595231 35.0467273,14.8006615 33.9685455,15.5132538 L33.61,13.4239231 L32.9329091,14.7983115 L31.5687273,15.5859231 L31.5687273,15.5859231 Z M21.2883636,25.7071923 C22.7065455,26.5723538 24.6032727,26.1699615 25.5089091,24.7024769 L32.684,12.9976692 C33.5690909,11.5638077 33.1161818,9.68145769 31.6736364,8.80147308 C30.2552727,7.93631154 28.3587273,8.33942692 27.4530909,9.80673077 L20.278,21.5109962 C19.3927273,22.9455808 19.8465455,24.8279308 21.2883636,25.7071923 L21.2883636,25.7071923 Z M44.5887273,24.7617692 L27.8547273,24.7617692 C27.2456364,25.7552769 25.9227273,28.5239385 22.35,28.5239385 C20.0054545,28.5239385 17.8194545,27.0767 16.9925455,24.7617692 L-0.0830909091,24.7617692 L-0.0830909091,29.0738385 L1.11381818,29.0738385 C2.108,29.0738385 3.01490909,29.6367538 3.45163636,30.52415 L11.5545455,47 L32.9872727,47 L41.0550909,30.5281269 C41.4909091,29.6380192 42.3992727,29.0734769 43.3947273,29.0734769 L44.5887273,29.0734769 L44.5887273,24.7614077 L44.5887273,24.7617692 L44.5887273,24.7617692 Z M43.7396364,21.2358654 L42.8330909,19.0867 L44.9950909,18.1855654 L45.9012727,20.3347308 L43.7396364,21.2358654 L43.7396364,21.2358654 Z M31.2216364,19.3493577 L32.1278182,21.4985231 L29.966,22.3994769 L29.06,20.2503115 L31.2216364,19.3493577 L31.2216364,19.3493577 Z M36.0683636,12.9833885 L35.162,10.8340423 L37.3238182,9.93308846 L38.23,12.0824346 L36.0683636,12.9833885 L36.0683636,12.9833885 Z M2.03454545,18.2669115 L4.19636364,17.3657769 L5.10272727,19.5151231 L2.94090909,20.4164385 L2.03454545,18.2669115 L2.03454545,18.2669115 Z M40.3123636,13.2042885 C40.9596364,13.2042885 41.4843636,13.7259885 41.4843636,14.3695269 C41.4843636,15.0130654 40.9594545,15.5347654 40.3123636,15.5347654 C39.6652727,15.5347654 39.1403636,15.0130654 39.1403636,14.3695269 C39.1401818,13.7259885 39.6650909,13.2042885 40.3123636,13.2042885 L40.3123636,13.2042885 Z M7.18327273,20.6384231 C7.83054545,20.6384231 8.35527273,21.1601231 8.35527273,21.8036615 C8.35527273,22.4472 7.83054545,22.9689 7.18327273,22.9689 C6.536,22.9689 6.01127273,22.4472 6.01127273,21.8036615 C6.01127273,21.1601231 6.536,20.6384231 7.18327273,20.6384231 L7.18327273,20.6384231 Z M16.3334545,18.5481885 L14.8821818,20.0057308 L16.444,19.7835654 L17.8314545,20.4459038 L16.8254545,18.6100115 C18.1974545,18.5993462 19.5661818,17.1031192 20.0001818,15.0410846 C20.4767273,12.7798423 19.6489091,10.69485 18.1534545,10.3835654 C18.0996364,10.3723577 18.0454545,10.3642231 17.9912727,10.3577154 L19.3376364,8.82985385 L17.792,9.14565769 L16.3667273,8.5681 L17.4987273,10.3642231 C16.2170909,10.5462577 14.9894545,11.9819269 14.5829091,13.9138077 C14.1167273,16.1258808 14.8992727,18.1689346 16.3334545,18.5481885 L16.3334545,18.5481885 Z M12.5349091,23.8982346 L13.9070909,23.3806923 L12.7989091,20.4757308 L11.5776364,21.3884346 L12.5349091,23.8982346 L12.5349091,23.8982346 Z M7.58036364,10.9097846 L8.55290909,13.4593538 L9.77418182,12.5464692 L8.96909091,10.4358077 C11.4849091,9.18922308 12.6898182,6.22478846 11.6716364,3.55627308 C10.5867273,0.71205 7.38818182,-0.718919231 4.52745455,0.359730769 C1.66727273,1.43838077 0.227818182,4.61829231 1.31272727,7.46233462 C2.28781818,10.0187731 4.97054545,11.4331115 7.58036364,10.9097846 L7.58036364,10.9097846 Z M10.4007273,18.3034269 L10.9972727,19.8670808 L12.2185455,18.9541962 L11.622,17.3907231 L10.4007273,18.3034269 L10.4007273,18.3034269 Z M9.13327273,14.9805269 L9.82054545,16.7822538 L11.0418182,15.8691885 L10.3543636,14.0676423 L9.13327273,14.9805269 L9.13327273,14.9805269 Z" id="Shape"></path>
                </g>
            </g>
        </g>
    </g>
</svg>