<?xml version="1.0" encoding="UTF-8" standalone="no"?>
<svg width="35px" height="29px" viewBox="0 0 35 29" version="1.1" xmlns="http://www.w3.org/2000/svg" xmlns:xlink="http://www.w3.org/1999/xlink" xmlns:sketch="http://www.bohemiancoding.com/sketch/ns">
    <!-- Generator: Sketch 3.0.4 (8053) - http://www.bohemiancoding.com/sketch -->
    <title>Candy</title>
    <desc>Created with Sketch.</desc>
    <defs></defs>
    <g id="Page-1" stroke="none" stroke-width="1" fill="none" fill-rule="evenodd" sketch:type="MSPage">
        <g id="512" sketch:type="MSArtboardGroup" transform="translate(-256.000000, -85.000000)" fill="#FFFFFF">
            <g id="Alice" sketch:type="MSLayerGroup" transform="translate(2.000000, 78.000000)">
                <g id="Candy" transform="translate(254.000000, 7.000000)" sketch:type="MSShapeGroup">
                    <path d="M17.0302727,23.1197647 C21.5656853,23.1197647 25.2423636,19.4190558 25.2423636,14.854 C25.2423636,10.2889442 21.5656853,6.58823529 17.0302727,6.58823529 C12.4948602,6.58823529 8.81818182,10.2889442 8.81818182,14.854 C8.81818182,19.4190558 12.4948602,23.1197647 17.0302727,23.1197647 Z" id="Oval"></path>
                    <path d="M32.3507273,9.48788235 C31.6830909,7.77658824 34.9811818,7.83505882 33.2842727,5.03258824 C32.1396364,3.39623529 30.6227273,5.51188235 29.6294545,3.96776471 C28.6386364,2.42364706 30.8370909,1.75741176 29.0583636,0.451294118 C27.2812727,-0.854823529 25.7193636,1.08294118 25.7193636,1.08294118 L21.1391818,6.08423529 C24.4020909,7.75270588 26.6062727,11.1802353 26.5432727,15.0944706 L32.4006364,14.3689412 C32.4006364,14.3689412 34.8748182,14.2223529 34.8568182,12.0054118 C34.838,9.78929412 33.0191818,11.1991765 32.3507273,9.48788235 L32.3507273,9.48788235 Z" id="Shape"></path>
                    <path d="M7.94618182,13.3428235 L2.50281818,14.0181176 C2.50281818,14.0181176 0.0286363636,14.1638824 0.0466363636,16.3816471 C0.0654545455,18.5969412 1.88509091,17.1878824 2.55272727,18.8991765 C3.22118182,20.6096471 -0.0769090909,20.5528235 1.62081818,23.3544706 C2.76545455,24.99 4.28154545,22.8751765 5.27318182,24.4201176 C6.26481818,25.9650588 4.06718182,26.6312941 5.84509091,27.9349412 C7.623,29.2427059 9.18490909,27.3065882 9.18490909,27.3065882 L12.6711818,23.4977647 C9.67336364,21.7164706 7.70318182,18.3918824 7.81281818,14.6431765 C7.82590909,14.2001176 7.87745455,13.7685882 7.94618182,13.3428235 Z" id="Shape"></path>
                </g>
            </g>
        </g>
    </g>
</svg>