<?xml version="1.0" encoding="UTF-8" standalone="no"?>
<svg width="45px" height="47px" viewBox="0 0 45 47" version="1.1" xmlns="http://www.w3.org/2000/svg" xmlns:xlink="http://www.w3.org/1999/xlink" xmlns:sketch="http://www.bohemiancoding.com/sketch/ns">
    <!-- Generator: Sketch 3.0.4 (8053) - http://www.bohemiancoding.com/sketch -->
    <title>christmas-candy-icon</title>
    <desc>Created with Sketch.</desc>
    <defs></defs>
    <g id="Page-1" stroke="none" stroke-width="1" fill="none" fill-rule="evenodd" sketch:type="MSPage">
        <g id="Artboard-1" sketch:type="MSArtboardGroup" transform="translate(-3016.000000, -2652.000000)" fill="#FFFFFF">
            <path d="M3054.30914,2653.78085 C3047.9614,2650.11075 3039.81538,2652.29659 3036.15055,2658.653 L3016.56872,2692.61517 C3015.39667,2694.64781 3016.09468,2697.25677 3018.12481,2698.43051 C3020.15505,2699.60426 3022.76015,2698.90507 3023.93231,2696.87221 L3043.51415,2662.91003 C3044.83476,2660.61935 3047.77012,2659.83176 3050.05772,2661.15426 C3052.34531,2662.47665 3053.13173,2665.41586 3051.81112,2667.70677 L3049.52626,2671.66937 C3048.35421,2673.70224 3049.05234,2676.31108 3051.08235,2677.48471 C3053.11248,2678.65845 3055.71781,2677.9595 3056.89009,2675.92641 L3059.17483,2671.96381 C3062.83966,2665.60751 3060.65676,2657.4505 3054.30914,2653.78085 L3054.30914,2653.78085 Z M3053.08559,2670.16526 L3053.83009,2668.87413 C3054.32793,2668.01079 3054.62357,2667.08493 3054.73328,2666.1528 L3058.56374,2666.42579 C3058.42476,2667.80545 3058.02169,2669.17723 3057.33405,2670.46825 L3053.08559,2670.16526 L3053.08559,2670.16526 Z M3040.70228,2663.11765 L3038.21679,2659.74278 C3038.9565,2658.4837 3039.91028,2657.42563 3041.006,2656.58899 L3043.28596,2659.68494 C3042.58122,2660.23309 3041.96809,2660.92246 3041.49507,2661.74279 L3040.70228,2663.11765 L3040.70228,2663.11765 Z M3021.08581,2689.4502 L3023.33034,2685.55685 L3025.81741,2688.93354 L3023.57277,2692.82713 L3021.08581,2689.4502 L3021.08581,2689.4502 Z M3026.75216,2679.62218 L3028.99681,2675.72905 L3031.48377,2679.10598 L3029.23924,2682.99911 L3026.75216,2679.62218 L3026.75216,2679.62218 Z M3032.41601,2669.79873 L3034.66054,2665.90605 L3037.14773,2669.28253 L3034.90297,2673.17565 L3032.41601,2669.79873 L3032.41601,2669.79873 Z M3049.28998,2658.36632 L3051.26372,2654.94262 C3051.90466,2655.16633 3052.53443,2655.45038 3053.14335,2655.80242 C3053.75239,2656.15447 3054.3129,2656.55864 3054.82669,2657.00263 L3052.85285,2660.42611 C3052.3869,2659.92907 3051.84268,2659.49033 3051.22339,2659.13246 C3050.60433,2658.77449 3049.95268,2658.52181 3049.28998,2658.36632 L3049.28998,2658.36632 Z" id="christmas-candy-icon" sketch:type="MSShapeGroup"></path>
        </g>
    </g>
</svg>