<?xml version="1.0" encoding="UTF-8" standalone="no"?>
<svg width="47px" height="46px" viewBox="0 0 47 46" version="1.1" xmlns="http://www.w3.org/2000/svg" xmlns:xlink="http://www.w3.org/1999/xlink" xmlns:sketch="http://www.bohemiancoding.com/sketch/ns">
    <!-- Generator: Sketch 3.0.4 (8053) - http://www.bohemiancoding.com/sketch -->
    <title>carkeys</title>
    <desc>Created with Sketch.</desc>
    <defs></defs>
    <g id="Page-1" stroke="none" stroke-width="1" fill="none" fill-rule="evenodd" sketch:type="MSPage">
        <g id="512" sketch:type="MSArtboardGroup" transform="translate(-57.000000, -151.000000)" fill="#FFFFFF">
            <g id="Colene" sketch:type="MSLayerGroup" transform="translate(13.000000, 145.000000)">
                <g id="carkeys" transform="translate(44.000000, 6.000000)" sketch:type="MSShapeGroup">
                    <g id="Group">
                        <path d="M41.3848652,10.413597 L43.1392665,12.1661078 L43.8944207,11.4117672 C45.2004833,10.1071121 45.2004833,7.98422198 43.8944207,6.67951724 L39.3544639,2.14445259 C38.7217778,1.51249784 37.8805782,1.16442457 36.9858857,1.16442457 C36.0910939,1.16442457 35.2499439,1.51244828 34.6172578,2.14445259 L33.8621036,2.89884267 L35.6165049,4.65135345 L36.3717087,3.89696336 C36.5357605,3.73308836 36.7539008,3.64282328 36.9859353,3.64282328 C37.2179698,3.64282328 37.43611,3.73308836 37.6001618,3.89696336 L42.140069,8.43197845 C42.4787422,8.77028664 42.4787422,9.32084914 42.140069,9.65915733 L41.3848652,10.413597 L41.3848652,10.413597 Z" id="Shape"></path>
                        <path d="M2.81989428,36.6023685 C1.00301834,38.4172866 -1.09526645,43.4558728 0.721659115,45.2708405 C2.11540453,46.6630841 5.40790291,45.7539397 7.68616828,44.435653 C7.85106365,44.3402328 7.99501834,44.1086961 8.00499245,43.9185991 C8.08265156,42.4370819 8.27598058,40.2096509 8.27598058,40.2096509 C8.27662567,40.1352974 8.32044229,40.091528 8.39487594,40.0908836 L12.3945437,40.0032953 C12.4969644,40.0010647 12.5794865,39.9185819 12.5816203,39.8162716 L12.6653333,35.8249289 C12.6659784,35.7505754 12.709795,35.706806 12.7842783,35.7061121 C12.7842783,35.7061121 15.3977433,35.6830625 16.4657174,35.6734461 C16.7123409,35.6712155 17.0537433,35.5281595 17.2281661,35.3539741 C18.0654455,34.5177953 20.4289622,32.1570237 22.6357713,29.9526918 L16.056233,23.3802435 L2.81989428,36.6023685 L2.81989428,36.6023685 Z" id="Shape"></path>
                        <path d="M42.262041,13.0423879 L40.5076397,11.2898772 L34.7392794,5.52768319 L32.9848781,3.77517241 L29.8707228,0.664422414 C29.4326063,0.226778017 28.8583258,0.00793103448 28.2840949,0.00793103448 C27.7098641,0.00793103448 27.1355836,0.226778017 26.6974671,0.664422414 L15.1318166,12.2175603 C12.785767,14.5610819 12.785767,18.3607414 15.1318166,20.7042629 L16.9334585,22.5039634 L23.5129471,29.0763621 L25.3146882,30.8761616 C26.4877131,32.0479224 28.025165,32.6338276 29.562617,32.6338276 C31.100069,32.6338276 32.637521,32.0479224 33.8105458,30.8761616 L45.3761963,19.3230237 C46.252479,18.4476853 46.252479,17.0284763 45.3761963,16.1531875 L42.262041,13.0423879 L42.262041,13.0423879 Z M28.5608393,24.506847 C28.2464315,24.8209655 27.8572923,25.0329224 27.4336656,25.1276487 C27.2680259,25.1646767 27.0973247,25.1843556 26.9234477,25.1843556 C26.3048544,25.1843556 25.723329,24.9437478 25.2860065,24.506847 L21.5079525,20.7328642 C21.0705804,20.2960129 20.8297131,19.7151142 20.8297131,19.0971875 C20.8297131,18.920722 20.8500086,18.7474784 20.8882675,18.5795884 C20.9839396,18.1594914 21.19548,17.7736961 21.5079525,17.4615603 C21.9452751,17.0246595 22.5268004,16.7840517 23.1453441,16.7840517 C23.7639374,16.7840517 24.3454628,17.0246595 24.7827853,17.4615603 L24.9362179,17.6148276 L28.3909817,21.0658685 L28.5608393,21.2355431 C28.9982114,21.6723944 29.2390787,22.2532931 29.2390787,22.8712198 C29.2390787,23.489097 28.9982611,24.0699957 28.5608393,24.506847 L28.5608393,24.506847 Z M39.947452,17.6487328 L37.6986127,19.8951487 C36.2449234,21.3472716 33.8880065,21.3472716 32.4343172,19.8951487 L26.1246753,13.592306 C24.670986,12.1401832 24.670986,9.78580603 26.1246753,8.33368319 L28.3735146,6.08726724 C28.9164833,5.54488362 29.7967853,5.54488362 30.3398037,6.08726724 L30.8627745,6.60972414 L39.4244811,15.1621552 L39.9475016,15.6846121 C40.4904207,16.2269461 40.4904207,17.1063491 39.947452,17.6487328 L39.947452,17.6487328 Z" id="Shape"></path>
                        <path d="M23.7301942,18.5130668 C23.5740324,18.3570733 23.3663128,18.2711207 23.1453937,18.2711207 C22.9245243,18.2711207 22.7168047,18.3570237 22.5606429,18.5130668 C22.4044811,18.6691099 22.3184358,18.876556 22.3184358,19.0971875 C22.3184358,19.3178685 22.4044315,19.5253642 22.5606429,19.6813578 L26.3386969,23.4553405 C26.4948587,23.6113341 26.7025782,23.6972866 26.9234973,23.6972866 C27.1443668,23.6972866 27.3520863,23.6113836 27.5082481,23.4553405 C27.6644099,23.2992974 27.7504552,23.0918513 27.7504552,22.8712198 C27.7504552,22.6505388 27.6644595,22.4430431 27.5082481,22.2870496 L23.7301942,18.5130668 L23.7301942,18.5130668 Z" id="Shape"></path>
                    </g>
                </g>
            </g>
        </g>
    </g>
</svg>