<?xml version="1.0" encoding="UTF-8" standalone="no"?>
<svg width="33px" height="42px" viewBox="0 0 33 42" version="1.1" xmlns="http://www.w3.org/2000/svg" xmlns:xlink="http://www.w3.org/1999/xlink" xmlns:sketch="http://www.bohemiancoding.com/sketch/ns">
    <!-- Generator: Sketch 3.0.4 (8053) - http://www.bohemiancoding.com/sketch -->
    <title>carkeys</title>
    <desc>Created with Sketch.</desc>
    <defs></defs>
    <g id="Page-1" stroke="none" stroke-width="1" fill="none" fill-rule="evenodd" sketch:type="MSPage">
        <g id="512" sketch:type="MSArtboardGroup" transform="translate(-367.000000, -60.000000)" fill="#FFFFFF">
            <g id="carkeys" sketch:type="MSLayerGroup" transform="translate(368.000000, 61.000000)">
                <path d="M2.58636207,39.3357895 C2.43777586,39.3357895 2.28865517,39.3078947 2.14862069,39.2542105 C2.00537931,39.1994737 0.745603448,38.6821053 0.314275862,37.4131579 C0.119189655,36.8347368 0.0358103448,35.9036842 0.754155172,34.7531579 L1.59810345,33.4026316 C1.7482931,33.1621053 1.98346552,32.9815789 2.25551724,32.8952632 L2.85681034,32.7078947 L2.25017241,30.1884211 C2.17481034,29.88 2.22986207,29.5542105 2.40036207,29.2857895 C2.57246552,29.0157895 2.84665517,28.8263158 3.16146552,28.7584211 L5.81089655,28.1831579 L5.8125,26.2926316 C5.8125,26.0884211 5.86755172,25.8868421 5.96910345,25.7105263 L7.81360345,22.5094737 C6.5997931,20.2452632 6.67194828,17.4789474 8.0477069,15.2684211 C9.00924138,13.7305263 10.4999138,12.6078947 12.2567586,12.0963158 C12.5330862,11.9810526 13.0991034,11.8052632 13.6987931,11.9505263 C14.3423103,12.1110526 14.7330172,12.7552632 14.571069,13.3884211 C14.4080517,14.0236842 13.7463621,14.4084211 13.1108621,14.2478947 C11.7890862,14.6873684 10.7575345,15.4536842 10.0979828,16.5084211 C9.07712069,18.1468421 9.11881034,20.24 10.2022069,21.8373684 C10.4560862,22.2089474 10.4737241,22.6894737 10.2492414,23.08 L8.21660345,26.6078947 L8.21339655,29.1368421 C8.21339655,29.6921053 7.82055172,30.1715789 7.26843103,30.2910526 L4.86967241,30.8121053 L5.4527931,33.2284211 C5.59817241,33.8305263 5.24755172,34.4421053 4.64946552,34.63 L3.41106897,35.0184211 L2.80015517,35.9942105 C2.62324138,36.2763158 2.54787931,36.5184211 2.5917069,36.6573684 C2.61789655,36.7405263 2.69218966,36.8221053 2.7745,36.89 L5.06903448,36.3531579 L12.4726897,24.5142105 C12.7233621,24.1147368 13.1953103,23.8926316 13.6619138,23.9615789 C15.1606034,24.1710526 16.6379138,23.7063158 17.7426897,22.7052632 L17.7426897,22.7052632 C17.7373448,22.7052632 17.9949655,22.4184211 18.1045345,22.0084211 C18.2750345,21.3742105 18.939931,21 19.5732931,21.1636842 C20.2152069,21.33 20.600569,21.9778947 20.4306034,22.61 C20.1494655,23.6678947 19.4840345,24.34 19.4086724,24.4142105 C17.9409828,25.7447368 16.0462414,26.4157895 14.134931,26.3763158 L6.85741379,38.0142105 C6.69065517,38.2815789 6.42234483,38.4726316 6.11127586,38.5447368 L2.86375862,39.3031579 C2.77289655,39.3252632 2.67882759,39.3357895 2.58636207,39.3357895 L2.58636207,39.3357895 Z" id="Shape" sketch:type="MSShapeGroup"></path>
                <path d="M8.10115517,20.3794737 C7.99318966,20.3794737 7.88201724,20.3663158 7.77244828,20.3352632 C7.28072414,20.1973684 6.41967241,19.8921053 5.88412069,19.6415789 C3.3292931,18.4757895 1.37896552,16.3878947 0.406741379,13.77 C-0.563344828,11.1557895 -0.442017241,8.32684211 0.752017241,5.80421053 C1.94337931,3.27526316 4.06527586,1.35421053 6.72593103,0.396842105 C9.38658621,-0.556842105 12.2572931,-0.437368421 14.8121207,0.736842105 C17.3808448,1.91 19.329569,3.99947368 20.3007241,6.62105263 C21.2713448,9.23473684 21.1484138,12.0626316 19.9559828,14.5805263 C19.6764483,15.1757895 18.9591724,15.4294737 18.3589483,15.1542105 C17.7565862,14.8789474 17.4968276,14.1736842 17.7763621,13.5815789 C18.6972759,11.6357895 18.7908103,9.45210526 18.0425345,7.43368421 C17.2910517,5.40684211 15.7822069,3.79157895 13.7992759,2.88421053 C11.8222241,1.97736842 9.60412069,1.88263158 7.55277586,2.62210526 C5.49448276,3.36210526 3.85415517,4.84789474 2.9327069,6.80210526 C2.01072414,8.75263158 1.91718966,10.9368421 2.66706897,12.9573684 C3.41694828,14.9805263 4.92525862,16.5926316 6.9097931,17.4984211 C7.31386207,17.6894737 8.04022414,17.9484211 8.43093103,18.0568421 C9.06910345,18.2357895 9.44110345,18.8915789 9.25937931,19.52 C9.10812069,20.04 8.62601724,20.3794737 8.10115517,20.3794737 L8.10115517,20.3794737 Z" id="Shape" sketch:type="MSShapeGroup"></path>
                <path d="M27.3142069,40.2410526 C25.9582241,40.2410526 24.8737586,39.3973684 24.335,37.9294737 L23.7283621,36.2857895 C23.6294828,36.0184211 23.6326897,35.7247368 23.7369138,35.4578947 L24.0282069,34.7068421 L21.2815,33.4363158 C20.988069,33.3015789 20.7625172,33.0568421 20.6561552,32.7557895 C20.5503276,32.4557895 20.5706379,32.1273684 20.7122759,31.8421053 L22.0848276,29.0957895 L20.3424138,27.7289474 C20.1772586,27.6015789 20.0511207,27.4331579 19.9746897,27.2415789 L18.4134655,23.3921053 C15.5962069,22.8957895 13.2177586,20.9473684 12.2337759,18.2684211 C10.7243966,14.1452632 12.9002759,9.58578947 17.0826034,8.10157895 C17.963431,7.78789474 18.8848793,7.63 19.8164828,7.63 C23.2067069,7.63 26.257,9.73789474 27.4077414,12.8773684 C28.3986724,15.5910526 27.8134138,18.6026316 25.930431,20.7584211 L31.1688966,35.0652632 C31.2784655,35.3610526 31.2629655,35.6868421 31.1261379,35.9705263 L29.5558276,39.2663158 C29.4516034,39.4863158 29.2816379,39.6689474 29.0673103,39.7905263 C28.9352931,39.8631579 28.2233621,40.2410526 27.3142069,40.2410526 L27.3142069,40.2410526 Z M26.1431552,35.8921053 L26.598,37.1247368 C26.8716552,37.8726316 27.1816552,37.8726316 27.3152759,37.8726316 C27.4061379,37.8726316 27.4986034,37.8578947 27.5814483,37.8373684 L28.7402069,35.4063158 L23.419431,20.8768421 C23.2558793,20.4342105 23.3756034,19.9410526 23.7198103,19.6168421 C25.3451724,18.0905263 25.9058448,15.76 25.1463448,13.6805263 C24.3382069,11.4784211 22.197069,9.99842105 19.8175517,9.99842105 C19.1644138,9.99842105 18.5192931,10.1094737 17.8992931,10.33 C14.9633793,11.3715789 13.437431,14.5721053 14.4967759,17.4668421 C15.2477241,19.5131579 17.1601034,20.9515789 19.3680517,21.1315789 C19.8223621,21.1684211 20.2168103,21.4552632 20.3857069,21.8715789 L22.0901724,26.0731579 L24.3403448,27.8384211 C24.783431,28.1847368 24.9197241,28.7884211 24.6706552,29.2878947 L23.4119483,31.8052632 L26.0613793,33.0310526 C26.6327414,33.2947368 26.8989138,33.9468421 26.6738966,34.5273684 L26.1431552,35.8921053 L26.1431552,35.8921053 Z" id="Shape" sketch:type="MSShapeGroup"></path>
                <path d="M19.1163103,15.9047368 C18.211431,15.9047368 17.3979483,15.3426316 17.0932931,14.5036842 C16.6956379,13.4152632 17.2718103,12.2042105 18.3781897,11.8063158 C19.4631897,11.4236842 20.7427414,12.0121053 21.1307759,13.0831579 C21.3226552,13.6010526 21.2975345,14.1736842 21.0564828,14.6836842 C20.8143621,15.1963158 20.3851724,15.5842105 19.8474828,15.7784211 C19.6058966,15.8636842 19.3637759,15.9047368 19.1163103,15.9047368 L19.1163103,15.9047368 Z M19.1163103,13.5363158 C19.0874483,13.5363158 19.0601897,13.5415789 19.035069,13.5484211 C18.9597069,13.5763158 18.9067931,13.6247368 18.8763276,13.6842105 C18.848,13.7473684 18.8447931,13.8215789 18.8699138,13.8878947 C18.8950345,13.9578947 18.9746724,14.0484211 19.1093621,14.0484211 C19.3386552,13.9836842 19.4054655,13.8394737 19.3568276,13.7036842 C19.3252931,13.6194737 19.2392414,13.5363158 19.1163103,13.5363158 L19.1163103,13.5363158 Z" id="Shape" sketch:type="MSShapeGroup"></path>
            </g>
        </g>
    </g>
</svg>