<?xml version="1.0" encoding="UTF-8" standalone="no"?>
<svg width="45px" height="47px" viewBox="0 0 45 47" version="1.1" xmlns="http://www.w3.org/2000/svg" xmlns:xlink="http://www.w3.org/1999/xlink" xmlns:sketch="http://www.bohemiancoding.com/sketch/ns">
    <!-- Generator: Sketch 3.0.4 (8053) - http://www.bohemiancoding.com/sketch -->
    <title>christmas-candy-icon</title>
    <desc>Created with Sketch.</desc>
    <defs></defs>
    <g id="Page-1" stroke="none" stroke-width="1" fill="none" fill-rule="evenodd" sketch:type="MSPage">
        <g id="512" sketch:type="MSArtboardGroup" transform="translate(-53.000000, -9.000000)" fill="#FFFFFF">
            <g id="Tomas" sketch:type="MSLayerGroup" transform="translate(5.000000, 8.000000)">
                <g id="Candy" transform="translate(48.000000, 1.000000)" sketch:type="MSShapeGroup">
                    <path d="M38.3091362,1.78085282 C31.961402,-1.88925398 23.8153767,0.296588252 20.1505539,6.65299602 L0.568718505,40.6151732 C-0.603332128,42.6478091 0.0946805303,45.2567654 2.12480711,46.4305106 C4.15504762,47.6042557 6.76014888,46.9050737 7.93231344,44.8722096 L27.5141489,10.9100324 C28.8347565,8.61935282 31.7701236,7.83176058 34.0577185,9.15426301 C36.3453134,10.4766514 37.1317312,13.4158625 35.8111236,15.7067703 L33.5262628,19.6693722 C32.3542122,21.7022363 33.0523388,24.3110785 35.0823514,25.4847096 C37.112478,26.6584548 39.7178071,25.9595009 40.8900856,23.9264086 L43.1748324,19.9638067 C46.8396552,13.607513 44.6567565,5.4505033 38.3091362,1.78085282 L38.3091362,1.78085282 Z M37.0855919,18.1652582 L37.8300856,16.8741271 C38.3279337,16.0107873 38.6235666,15.0849329 38.7332755,14.1528043 L42.5637438,14.4257921 C42.4247565,15.8054475 42.0216932,17.1772315 41.3340476,18.4682484 L37.0855919,18.1652582 L37.0855919,18.1652582 Z M24.7022755,11.1176538 L22.2167945,7.74278 C22.9565033,6.48370476 23.9102755,5.42563437 25.005997,4.58898874 L27.285959,7.68494262 C26.5812248,8.23308583 25.9680856,8.92245718 25.4950729,9.74278971 L24.7022755,11.1176538 L24.7022755,11.1176538 Z M5.08580711,37.4502023 L7.33033876,33.5568455 L9.81741471,36.9335446 L7.57276914,40.8271295 L5.08580711,37.4502023 L5.08580711,37.4502023 Z M10.7521615,27.6221829 L12.9968071,23.7290543 L15.4837691,27.1059815 L13.2392375,30.9991101 L10.7521615,27.6221829 L10.7521615,27.6221829 Z M16.4160096,17.7987266 L18.6605413,13.9060543 L21.1477312,17.2825251 L18.9029717,21.1756538 L16.4160096,17.7987266 L16.4160096,17.7987266 Z M33.2899843,6.36631883 L35.2637185,2.94261981 C35.9046552,3.16632612 36.5344274,3.45037951 37.1433514,3.8024232 C37.7523894,4.15446689 38.3128957,4.55864408 38.8266932,5.00263437 L36.8528451,8.42610524 C36.3868957,7.92906883 35.8426805,7.49032612 35.2233894,7.13246447 C34.6043261,6.77448874 33.9526805,6.5218067 33.2899843,6.36631883 L33.2899843,6.36631883 Z" id="christmas-candy-icon"></path>
                </g>
            </g>
        </g>
    </g>
</svg>