<?xml version="1.0" encoding="UTF-8" standalone="no"?>
<svg width="32px" height="20px" viewBox="0 0 32 20" version="1.1" xmlns="http://www.w3.org/2000/svg" xmlns:xlink="http://www.w3.org/1999/xlink" xmlns:sketch="http://www.bohemiancoding.com/sketch/ns">
    <!-- Generator: Sketch 3.0.4 (8053) - http://www.bohemiancoding.com/sketch -->
    <title>dogtoy</title>
    <desc>Created with Sketch.</desc>
    <defs></defs>
    <g id="Page-1" stroke="none" stroke-width="1" fill="none" fill-rule="evenodd" sketch:type="MSPage">
        <g id="512" sketch:type="MSArtboardGroup" transform="translate(-362.000000, -399.000000)" fill="#FFFFFF">
            <g id="dogtoy" sketch:type="MSLayerGroup" transform="translate(362.000000, 400.000000)">
                <path d="M28.78,9.32933333 C30.654,8.72433333 32.019,6.879 32.018,4.69566667 C32.0176667,2.02133333 29.9696667,-0.146 27.4443333,-0.145 C24.9196667,-0.144333333 22.8726667,2.02433333 22.873,4.699 C22.8736667,4.74433333 22.8756667,4.78966667 22.8766667,4.835 L9.121,4.83966667 C9.12166667,4.794 9.12433333,4.749 9.124,4.70333333 C9.12333333,2.02866667 7.075,-0.138333333 4.55033333,-0.137333333 C2.025,-0.137 -0.0213333333,2.031 -0.0206666667,4.70666667 C-0.0203333333,6.88933333 1.345,8.734 3.22033333,9.33766667 C1.34566667,9.943 -0.0183333333,11.7886667 -0.0176666667,13.9723333 C-0.017,16.6456667 2.03066667,18.8126667 4.55566667,18.8123333 C7.081,18.8116667 9.128,16.6423333 9.127,13.9693333 C9.127,13.6563333 9.09766667,13.351 9.044,13.054 L22.9583333,13.0493333 C22.9056667,13.3463333 22.8756667,13.6516667 22.8756667,13.9646667 C22.8766667,16.6383333 24.9246667,18.8056667 27.45,18.8046667 C29.9756667,18.804 32.0213333,16.6346667 32.0203333,13.9616667 C32.02,11.778 30.6546667,9.933 28.78,9.32933333 L28.78,9.32933333 Z M11.7653333,6.454 L19.775,6.454 L19.775,7.13266667 L11.7653333,7.13266667 L11.7653333,6.454 L11.7653333,6.454 Z M19.775,11.59 L11.7653333,11.59 L11.7653333,10.9116667 L19.775,10.9116667 L19.775,11.59 L19.775,11.59 Z M21.1543333,9.338 L10.386,9.338 L10.386,8.65933333 L21.1543333,8.65933333 L21.1543333,9.338 L21.1543333,9.338 Z" id="Shape" sketch:type="MSShapeGroup"></path>
            </g>
        </g>
    </g>
</svg>