<?xml version="1.0" encoding="UTF-8" standalone="no"?>
<svg width="20px" height="52px" viewBox="0 0 20 52" version="1.1" xmlns="http://www.w3.org/2000/svg" xmlns:xlink="http://www.w3.org/1999/xlink" xmlns:sketch="http://www.bohemiancoding.com/sketch/ns">
    <!-- Generator: Sketch 3.0.4 (8053) - http://www.bohemiancoding.com/sketch -->
    <title>fitbit</title>
    <desc>Created with Sketch.</desc>
    <defs></defs>
    <g id="Page-1" stroke="none" stroke-width="1" fill="none" fill-rule="evenodd" sketch:type="MSPage">
        <g id="512" sketch:type="MSArtboardGroup" transform="translate(-135.000000, -152.000000)" fill="#FFFFFF">
            <g id="Colene" sketch:type="MSLayerGroup" transform="translate(13.000000, 145.000000)">
                <g id="fitbit" transform="translate(131.500000, 32.500000) rotate(-90.000000) translate(-131.500000, -32.500000) translate(106.000000, 23.000000)">
                    <path d="M7.46621529,9.90196981 C7.49022736,10.0559208 7.47678471,10.1802226 7.25749497,10.0783358 C7.25995775,10.6982151 7.25903421,11.2675585 7.26631992,11.8368 C7.26857746,12.0071547 7.49351107,12.2162264 7.66590543,12.2099094 C7.85338431,12.2031849 8.07513682,12.2834717 8.18709054,12.0395547 C8.22557143,11.9558038 8.30366197,11.8751094 8.30530382,11.791766 C8.31474447,11.3246151 8.30684306,10.8571585 8.3038672,10.3898038 C8.30181489,10.050317 8.13988732,9.89422642 7.80002414,9.9005434 C7.70346278,9.90227547 7.60679879,9.90146038 7.46621529,9.90196981" id="Fill-1" sketch:type="MSShapeGroup"></path>
                    <path d="M-0.0447404427,4.53976981 L-0.044637827,4.53976981 C0.129706237,4.12162642 0.26454326,3.76573585 0.429651911,3.41656981 C1.2050161,1.7766 2.74927968,0.635977358 4.53930785,0.284366038 C5.6152334,0.0729509434 6.70337022,0.0146716981 7.7958169,0.0470716981 C10.9759799,0.141520755 14.1557324,0.249316981 17.3354849,0.354871698 C18.9911891,0.409788679 20.6466881,0.472245283 22.3023924,0.529098113 C25.8114386,0.649630189 29.3206901,0.763335849 32.8294286,0.890490566 C34.9738913,0.968128302 37.1182515,1.05086038 39.2612777,1.15845283 C41.2337565,1.25738491 43.1145996,1.75550943 44.9348994,2.50763774 C46.4614105,3.13841887 48.0365614,3.61993585 49.6613783,3.93456226 C49.6916499,3.94149057 49.7227425,3.94862264 49.7531167,3.95555094 C50.5285835,4.16146415 50.5328934,4.19956981 50.6353038,5.18206415 C50.8774769,7.50396226 50.8318129,9.83166792 50.7755795,12.1575396 C50.7539276,13.0501698 50.5939497,13.9394377 50.5036479,14.8308453 C50.4802515,15.0613132 50.3636801,15.1632 50.1394648,15.2187283 C49.0919638,15.4783358 48.039332,15.7236792 47.0066076,16.033517 C46.1728551,16.2836491 45.3551107,16.5947094 44.5474225,16.9206453 C42.7965936,17.6271283 40.9800905,18.0363057 39.0969899,18.1289208 C36.9349799,18.2353925 34.7715332,18.3120113 32.6081891,18.3903623 C28.4127465,18.5424792 24.216996,18.6874642 20.0212455,18.8339774 C16.8980342,18.9429962 13.7751308,19.0587396 10.6514064,19.1533925 C9.23120523,19.1963887 7.80895171,19.2318453 6.38895573,19.2029094 C5.29804829,19.1805962 4.21873642,19.0174755 3.19688934,18.5839472 C1.9556499,18.0572943 1.08156942,17.1619132 0.490297787,15.9789057 C0.299227364,15.5966264 0.147869215,15.1947849 -0.0453561368,14.7468906 C-0.0453561368,14.7467887 -0.0455613682,14.7467887 -0.0455613682,14.7468906" id="Fill-2" sketch:type="MSShapeGroup"></path>
                    <path d="M40.6770664,15.5041132 L39.6509095,15.5041132 C39.3675875,15.5041132 39.137831,15.2759887 39.137831,14.9946792 L39.137831,4.806 C39.137831,4.52458868 39.3675875,4.29656604 39.6509095,4.29656604 L40.6770664,4.29656604 C40.9604909,4.29656604 41.1901449,4.52458868 41.1901449,4.806 L41.1901449,14.9946792 C41.1901449,15.2759887 40.9604909,15.5041132 40.6770664,15.5041132" id="Fill-4" sketch:type="MSShapeGroup"></path>
                    <text id="2050" sketch:type="MSTextLayer" font-family="Open Sans" font-size="3.70096491" font-weight="526">
                        <tspan x="8.0480668" y="11.0671057">2050</tspan>
                    </text>
                </g>
            </g>
        </g>
    </g>
</svg>