<?xml version="1.0" encoding="UTF-8" standalone="no"?>
<svg width="48px" height="27px" viewBox="0 0 48 27" version="1.1" xmlns="http://www.w3.org/2000/svg" xmlns:xlink="http://www.w3.org/1999/xlink" xmlns:sketch="http://www.bohemiancoding.com/sketch/ns">
    <!-- Generator: Sketch 3.0.4 (8053) - http://www.bohemiancoding.com/sketch -->
    <title>Hat</title>
    <desc>Created with Sketch.</desc>
    <defs></defs>
    <g id="Page-1" stroke="none" stroke-width="1" fill="none" fill-rule="evenodd" sketch:type="MSPage">
        <g id="512" sketch:type="MSArtboardGroup" transform="translate(-187.000000, -85.000000)" fill="#FFFFFF">
            <g id="Alice" sketch:type="MSLayerGroup" transform="translate(2.000000, 78.000000)">
                <g id="Hat" transform="translate(186.000000, 7.000000)" sketch:type="MSShapeGroup">
                    <path d="M36.4143402,15.4488148 C36.505433,15.0265556 36.5553402,14.5893704 36.5553402,14.1396667 L36.5553402,6.8562963 C36.5553402,3.40888889 32.7498366,1.03161171 30.2733299,0.613888889 C30.2733299,0.613888889 27.0269384,-0.024247095 23.2577322,0.0272714235 C19.488526,0.079752905 16.2637803,0.381094466 16.2637803,0.381094466 C12.9170981,0.613888898 9.96109278,3.40888889 9.96109278,6.8562963 L9.96109278,14.1396667 C9.96109278,14.5677037 10.0051856,14.9861111 10.0880412,15.3915185 C9.118,15.7574444 8.19883505,15.4338889 7.34023711,15.6105926 C2.70661856,16.5605556 -0.194783505,12.6557407 -0.194783505,15.5287407 C-0.194783505,18.4017407 10.3046289,26.3490741 23.257732,26.3490741 C36.2108351,26.3490741 46.7112165,19.1552593 46.7112165,15.5287407 C46.7112165,11.9022222 43.6770515,16.4984444 38.8583402,15.5455926 C38.0874433,15.3934444 37.271,15.7627407 36.4143402,15.4488148 Z M22.7334639,20.1865926 C16.0478351,20.1865926 10.628299,18.4874444 10.628299,16.3910741 C10.628299,15.9182593 10.9064227,15.4656667 11.4103402,15.0482222 C13.1406186,16.4815926 17.5566804,17.5008889 22.7334639,17.5008889 C27.9102474,17.5008889 32.483299,16.4815926 34.2135773,15.0482222 C34.7174948,15.4656667 34.8386289,15.9182593 34.8386289,16.3910741 C34.8391134,18.486963 29.4195773,20.1865926 22.7334639,20.1865926 L22.7334639,20.1865926 Z" id="Shape"></path>
                </g>
            </g>
        </g>
    </g>
</svg>