<?xml version="1.0" encoding="UTF-8" standalone="no"?>
<svg width="30px" height="41px" viewBox="0 0 30 41" version="1.1" xmlns="http://www.w3.org/2000/svg" xmlns:xlink="http://www.w3.org/1999/xlink" xmlns:sketch="http://www.bohemiancoding.com/sketch/ns">
    <!-- Generator: Sketch 3.0.4 (8053) - http://www.bohemiancoding.com/sketch -->
    <title>kindle</title>
    <desc>Created with Sketch.</desc>
    <defs></defs>
    <g id="Page-1" stroke="none" stroke-width="1" fill="none" fill-rule="evenodd" sketch:type="MSPage">
        <g id="512" sketch:type="MSArtboardGroup" transform="translate(-157.000000, -413.000000)" fill="#FFFFFF">
            <g id="John" sketch:type="MSLayerGroup" transform="translate(60.000000, 224.000000)">
                <g id="kindle" transform="translate(98.000000, 189.000000)" sketch:type="MSShapeGroup">
                    <g id="Group">
                        <path d="M14.6862295,34.8360153 L13.3442186,34.8360153 C12.7859016,34.8360153 12.4699454,34.8769349 12.4699454,35.4363218 L12.4699454,37.331341 C12.4699454,37.890728 12.7859016,37.9311877 13.3442186,37.9311877 L14.6862295,37.9311877 C15.2446995,37.9311877 15.5605027,37.8908812 15.5605027,37.331341 L15.5605027,35.4363218 C15.5605027,34.8769349 15.2448525,34.8360153 14.6862295,34.8360153 L14.6862295,34.8360153 Z" id="Shape"></path>
                        <path d="M26.2532896,0.0360153257 L1.77700546,0.0360153257 C0.782775956,0.0360153257 -0.0227978142,0.843218391 -0.0227978142,1.83877395 L-0.0227978142,38.2557854 C-0.0227978142,39.251341 0.782775956,40.0585441 1.77700546,40.0585441 L26.2532896,40.0585441 C27.2472131,40.0585441 28.0530929,39.251341 28.0530929,38.2557854 L28.0530929,1.83877395 C28.0530929,0.843218391 27.2472131,0.0360153257 26.2532896,0.0360153257 L26.2532896,0.0360153257 Z M7.87962842,36.9842146 C7.54821858,36.9842146 7.27969399,36.7155556 7.27969399,36.383295 C7.27969399,36.0516475 7.54821858,35.7823755 7.87962842,35.7823755 C8.21103825,35.7823755 8.47986885,36.0516475 8.47986885,36.383295 C8.47971585,36.7155556 8.21103825,36.9842146 7.87962842,36.9842146 L7.87962842,36.9842146 Z M10.3090492,36.9842146 C9.97779235,36.9842146 9.70911475,36.7155556 9.70911475,36.383295 C9.70911475,36.0516475 9.97794536,35.7823755 10.3090492,35.7823755 C10.640612,35.7823755 10.9089836,36.0516475 10.9089836,36.383295 C10.9089836,36.7155556 10.640765,36.9842146 10.3090492,36.9842146 L10.3090492,36.9842146 Z M16.0400219,37.2645211 C16.0400219,37.9975479 15.6261421,38.4121073 14.8943169,38.4121073 L13.1359781,38.4121073 C12.404153,38.4121073 11.9902732,37.9975479 11.9902732,37.2645211 L11.9902732,35.503295 C11.9902732,34.7702682 12.404153,34.3550958 13.1359781,34.3550958 L14.8943169,34.3550958 C15.6261421,34.3550958 16.0400219,34.7702682 16.0400219,35.503295 L16.0400219,37.2645211 L16.0400219,37.2645211 Z M17.7212459,36.9842146 C17.3895301,36.9842146 17.1213115,36.7155556 17.1213115,36.383295 C17.1213115,36.0516475 17.3895301,35.7823755 17.7212459,35.7823755 C18.0528087,35.7823755 18.3211803,36.0516475 18.3211803,36.383295 C18.3211803,36.7155556 18.0529617,36.9842146 17.7212459,36.9842146 L17.7212459,36.9842146 Z M20.1508197,36.9842146 C19.8197158,36.9842146 19.5508852,36.7155556 19.5508852,36.383295 C19.5508852,36.0516475 19.8197158,35.7823755 20.1508197,35.7823755 C20.4825355,35.7823755 20.7507541,36.0516475 20.7507541,36.383295 C20.7507541,36.7155556 20.4825355,36.9842146 20.1508197,36.9842146 L20.1508197,36.9842146 Z M25.1736831,32.8314176 C25.1736831,33.0377011 25.0070601,33.2050575 24.8017268,33.2050575 L3.22918033,33.2050575 C3.02445902,33.2050575 2.85737705,33.0375479 2.85737705,32.8314176 L2.85737705,3.29440613 C2.85737705,3.08766284 3.02430601,2.92076628 3.22918033,2.92076628 L24.8017268,2.92076628 C25.0070601,2.92076628 25.1736831,3.08766284 25.1736831,3.29440613 L25.1736831,32.8314176 L25.1736831,32.8314176 Z" id="Shape"></path>
                    </g>
                </g>
            </g>
        </g>
    </g>
</svg>