<?xml version="1.0" encoding="UTF-8" standalone="no"?>
<svg width="31px" height="51px" viewBox="0 0 31 51" version="1.1" xmlns="http://www.w3.org/2000/svg" xmlns:xlink="http://www.w3.org/1999/xlink" xmlns:sketch="http://www.bohemiancoding.com/sketch/ns">
    <!-- Generator: Sketch 3.0.4 (8053) - http://www.bohemiancoding.com/sketch -->
    <title>marker</title>
    <desc>Created with Sketch.</desc>
    <defs></defs>
    <g id="Page-1" stroke="none" stroke-width="1" fill="none" fill-rule="evenodd" sketch:type="MSPage">
        <g id="512" sketch:type="MSArtboardGroup" transform="translate(-194.000000, -152.000000)">
            <g id="Colene" sketch:type="MSLayerGroup" transform="translate(13.000000, 145.000000)">
                <g id="marker" transform="translate(181.000000, 7.000000)" sketch:type="MSShapeGroup">
                    <path d="M3.51823529,37.4556897 L18.1,11.6145172 L24.4023529,15.1464138 L9.96529412,40.7325862 L9.82117647,40.9881724 L3.51823529,37.4556897 L3.51823529,37.4556897 Z M9.70882353,40.5889655 L9.85294118,40.3333793 L9.70882353,40.5889655 L9.70882353,40.5889655 Z M4.31823529,37.2323448 L9.59647059,40.1897586 L23.6011765,15.3697586 L18.3235294,12.4117586 L4.31823529,37.2323448 L4.31823529,37.2323448 Z" id="Shape" fill="#FFFFFF"></path>
                    <path d="M21.0470588,20.4937931 L16.9894118,14.1803448 L18.01,12.3713103 L22.0688235,18.6847586 L21.0470588,20.4937931 Z" id="Shape" fill="#FFFFFF"></path>
                    <path d="M19.3370588,23.5244828 L15.2794118,17.2116207 L16.2994118,15.4025862 L20.3582353,21.7154483 L19.3370588,23.5244828 Z" id="Shape" fill="#FFFFFF"></path>
                    <path d="M17.6276471,26.5551724 L13.5688235,20.2423103 L14.5894118,18.4332759 L18.6476471,24.7467241 L17.6276471,26.5551724 Z" id="Shape" fill="#FFFFFF"></path>
                    <path d="M26.7682353,10.3805517 C26.5817647,10.7111724 26.1564706,10.8295862 25.8252941,10.6437586 L21.2211765,8.06386207 C20.8905882,7.87862069 20.7705882,7.4547931 20.9570588,7.12475862 L25.4547059,0.351137931 C25.6405882,0.0205172414 26.0664706,-0.0978965517 26.3976471,0.0879310345 L29.9758824,2.09275862 C30.3070588,2.27858621 30.4264706,2.70124138 30.2388235,3.03186207 L26.7682353,10.3805517 L26.7682353,10.3805517 Z" id="Shape" fill="#FFFFFF"></path>
                    <path d="M25.29,14.3972414 C25.1041176,14.7278621 24.6794118,14.8462759 24.3476471,14.6610345 L18.5352941,11.404069 C18.2035294,11.2176552 18.0852941,10.795 18.2717647,10.4643793 L20.0823529,7.25548276 C20.2688235,6.92486207 20.6923529,6.80586207 21.0252941,6.99227586 L26.8370588,10.2492414 C27.1682353,10.435069 27.2876471,10.8577241 27.1011765,11.1883448 L25.29,14.3972414 L25.29,14.3972414 Z" id="Shape" fill="#FFFFFF"></path>
                    <path d="M9.21529412,41.1364828 L3.70588235,38.0501034 C3.62294118,38.0032069 3.51764706,38.0325172 3.47058824,38.1157586 L3.22117647,38.5565862 C3.17470588,38.6404138 3.20411765,38.7447586 3.28705882,38.7916552 L3.43941176,38.8772414 L1.62529412,42.0925862 L1.62647059,42.0925862 L1.62588235,43.4988966 L1.94764706,43.6794483 L0.674705882,45.9351724 C0.635294118,46.0055172 0.66,46.0952069 0.730588235,46.135069 L1.20529412,46.4006207 L0,48.5367586 L1.59529412,50.7197931 L3.35294118,47.6041034 L3.83,47.8714138 C3.9,47.9101034 3.99058824,47.8854828 4.03,47.8151379 L5.30294118,45.5594138 L5.62411765,45.7399655 L6.82882353,45.0089655 L6.83,45.0089655 L8.64411765,41.7936207 L8.79647059,41.8792069 C8.88,41.9261034 8.98588235,41.8962069 9.03235294,41.8141379 L9.28117647,41.3721379 C9.32823529,41.2888966 9.29882353,41.1827931 9.21529412,41.1364828 L9.21529412,41.1364828 Z" id="Shape" fill="#FFFFFF"></path>
                    <path d="M23.6011765,15.3697586 L23.5923529,15.3638966 L23.5988235,15.3744483 L23.6011765,15.3697586 Z" id="Shape"></path>
                    <path d="M18.3235294,12.4117586 L4.31823529,37.2323448 L9.59647059,40.1897586 L22.5782353,17.1828966 L20.18,13.4516897 L18.3235294,12.4117586 Z" id="Shape"></path>
                    <path d="M22.5782353,17.1828966 L23.5988235,15.3744483 L23.5923529,15.3638966 L20.18,13.4516897 L22.5782353,17.1828966 Z" id="Shape" fill="#FFFFFF"></path>
                    <path d="M22.7576471,17.4631034 L23.7788235,15.654069 L23.5988235,15.3744483 L22.5782353,17.1828966 L22.7576471,17.4631034 Z" id="Shape" fill="#FFFFFF"></path>
                </g>
            </g>
        </g>
    </g>
</svg>