<?xml version="1.0" encoding="UTF-8" standalone="no"?>
<svg width="39px" height="51px" viewBox="0 0 39 51" version="1.1" xmlns="http://www.w3.org/2000/svg" xmlns:xlink="http://www.w3.org/1999/xlink" xmlns:sketch="http://www.bohemiancoding.com/sketch/ns">
    <!-- Generator: Sketch 3.0.4 (8053) - http://www.bohemiancoding.com/sketch -->
    <title>musicsheet</title>
    <desc>Created with Sketch.</desc>
    <defs></defs>
    <g id="Page-1" stroke="none" stroke-width="1" fill="none" fill-rule="evenodd" sketch:type="MSPage">
        <g id="512" sketch:type="MSArtboardGroup" transform="translate(-194.000000, -364.000000)">
            <g id="Daniel" sketch:type="MSLayerGroup" transform="translate(9.000000, 364.000000)">
                <g id="musicsheet" transform="translate(185.000000, 0.000000)" sketch:type="MSShapeGroup">
                    <rect id="Rectangle-14" stroke="#FFFFFF" stroke-width="2" x="0" y="0" width="39" height="51" rx="4"></rect>
                    <rect id="Rectangle-15" stroke="#FFFFFF" x="11" y="24" width="21" height="2"></rect>
                    <rect id="Rectangle-16" stroke="#FFFFFF" x="11" y="28" width="21" height="2"></rect>
                    <rect id="Rectangle-17" stroke="#FFFFFF" x="11" y="32" width="21" height="2"></rect>
                    <rect id="Rectangle-18" stroke="#FFFFFF" x="11" y="36" width="21" height="2"></rect>
                    <rect id="Rectangle-19" stroke="#FFFFFF" x="11" y="40" width="21" height="2"></rect>
                    <g id="icon_36715" transform="translate(5.000000, 5.000000)" fill="#FFFFFF">
                        <path d="M5.84210526,8.3746875 C5.73978947,8.1096875 5.59231579,7.8746875 5.40284211,7.6709375 C5.21336842,7.4621875 4.97968421,7.2990625 4.70905263,7.1784375 C4.43715789,7.056875 4.14221053,6.99625 3.81663158,6.99625 C3.74494737,6.996875 3.68842105,7.0075 3.56178947,7.021875 L3.25326316,5.7046875 C4.51705263,4.5971875 4.85431579,3.3528125 4.85305263,2.3534375 C4.84989474,1.1865625 4.53663158,0.38375 4.05189474,0.093125 C3.92115789,0.0171875 3.75631579,-0.0171875 3.59778947,-0.0175 C3.45284211,-0.0171875 3.31357895,0.0109375 3.20684211,0.0796875 C2.99526316,0.219375 2.80894737,0.4215625 2.65042105,0.6846875 C2.48873684,0.946875 2.36589474,1.25 2.28126316,1.5990625 C2.19252632,1.9471875 2.14610526,2.32125 2.14263158,2.7196875 C2.16284211,3.3246875 2.26231579,3.91625 2.44168421,4.496875 C2.03652632,4.8565625 1.71284211,5.155 1.46336842,5.3884375 C1.20663158,5.63625 0.96,5.911875 0.721578947,6.2128125 C0.480631579,6.516875 0.345157895,6.843125 0.193263158,7.1878125 C0.0401052632,7.5315625 0,7.8984375 0,8.27875 L0,8.283125 C0,8.694375 0.0356842105,9.0915625 0.205894737,9.46875 C0.378631579,9.845625 0.570947368,10.216875 0.883894737,10.5175 C1.20063158,10.81875 1.54926316,11.0159375 1.95631579,11.18125 C2.36968421,11.35 2.81936842,11.4315625 3.28105263,11.4315625 C3.52768421,11.4315625 3.76042105,11.408125 3.98905263,11.3628125 C4.02410526,11.5084375 4.07368421,11.7003125 4.14031579,11.93625 C4.21863158,12.2184375 4.27578947,12.4471875 4.31210526,12.6159375 C4.34842105,12.7859375 4.36768421,12.955 4.36831579,13.123125 C4.36831579,13.375 4.33515789,13.5725 4.272,13.704375 L4.26852632,13.7103125 L4.26663158,13.7165625 C4.23505263,13.8271875 4.15610526,13.9390625 4.02663158,14.04875 C3.89842105,14.158125 3.74715789,14.24375 3.56021053,14.310625 C3.37768421,14.3728125 3.19642105,14.4075 3.02052632,14.4075 C2.75431579,14.4065625 2.55663158,14.3475 2.41421053,14.2353125 C2.64473684,14.2178125 2.84652632,14.135625 3.00631579,13.9909375 C3.18789474,13.829375 3.28263158,13.6209375 3.28231579,13.3859375 C3.28231579,13.21 3.23242105,13.045625 3.14210526,12.8996875 C3.04673684,12.751875 2.91978947,12.6365625 2.76821053,12.55125 L2.76757895,12.5503125 L2.76568421,12.588125 C2.61063158,12.5059375 2.44263158,12.5 2.26705263,12.5 L2.26515789,12.5 L2.26168421,12.5 C2.05610526,12.5 1.89473684,12.5275 1.57894737,12.635625 L1.57894737,12.61625 C1.57894737,12.718125 1.40115789,12.8434375 1.31242105,13.0071875 C1.22431579,13.1703125 1.26315789,13.3325 1.26315789,13.514375 L1.26315789,13.51875 L1.26315789,13.52375 C1.26315789,13.9334375 1.44789474,14.2653125 1.80536842,14.5009375 C2.15684211,14.730625 2.55536842,14.8784375 3.02905263,14.8784375 C3.36347368,14.878125 3.69473684,14.8128125 3.97768421,14.6828125 C4.26252632,14.55375 4.53821053,14.346875 4.71221053,14.105 C4.84231579,13.9159375 4.96452632,13.5425 4.96578947,13.1340625 C4.96578947,12.991875 4.94842105,12.845625 4.91021053,12.7028125 C4.87136842,12.5196875 4.61084211,11.5134375 4.54105263,11.2078125 C5.034,11.0353125 5.34442105,10.769375 5.59610526,10.4221875 C5.86263158,10.05625 5.99684211,9.645 5.99621053,9.2 C5.99621053,8.9125 5.94031579,8.6371875 5.84210526,8.3746875 L5.84210526,8.3746875 Z M2.84494737,2.494375 C3.07926316,1.498125 3.60378947,1.333125 3.80842105,1.3309375 C3.92494737,1.3315625 4.00642105,1.3834375 4.068,1.4546875 C4.12957895,1.5246875 4.16368421,1.6171875 4.16905263,1.6634375 L4.16968421,1.6690625 L4.17094737,1.6740625 C4.18957895,1.745 4.19747368,1.83 4.19747368,1.9159375 C4.19747368,2.115625 4.15421053,2.3353125 4.06168421,2.5671875 C3.96915789,2.805625 3.84347368,3.0403125 3.68557895,3.2725 C3.61105263,3.3828125 3.42947368,3.6046875 3.25326316,3.804375 C3.16515789,3.9040625 3.07673684,3.9990625 3.00315789,4.0725 C2.98263158,4.09375 2.96242105,4.1134375 2.94378947,4.1309375 C2.88915789,3.856875 2.81305263,3.2915625 2.81336842,2.87 C2.81368421,2.719375 2.82347368,2.5859375 2.84494737,2.494375 L2.84494737,2.494375 Z M3.35463158,10.9434375 C2.59136842,10.945625 1.77442105,10.6465625 1.43368421,10.344375 C1.20189474,10.136875 1.01968421,9.97 0.913263158,9.7378125 C0.801473684,9.5003125 0.742105263,9.2534375 0.733894737,8.999375 C0.750947368,8.4240625 0.951157895,7.8940625 1.34273684,7.400625 C1.71726316,6.9253125 2.19505263,6.47125 2.78115789,6.033125 L3.02431579,7.131875 C2.65042105,7.274375 2.28252632,7.5059375 2.03936842,7.8228125 C1.78484211,8.154375 1.57894737,8.5215625 1.57894737,8.9128125 L1.57894737,8.9175 C1.57894737,9.284375 1.77821053,9.6121875 2.03052632,9.8934375 C2.28221053,10.1721875 2.63905263,10.36 3.03189474,10.446875 L3.06442105,10.45125 L3.08905263,10.4471875 C3.12884211,10.4390625 3.16357895,10.429375 3.192,10.4146875 C3.21726316,10.40125 3.258,10.3728125 3.25989474,10.316875 C3.26115789,10.2721875 3.24157895,10.22375 3.20589474,10.193125 C3.17273684,10.163125 3.13168421,10.146875 3.08589474,10.136875 C2.86705263,10.05125 2.70442105,9.921875 2.59515789,9.74375 C2.47989474,9.5590625 2.42431579,9.39 2.42463158,9.2503125 C2.42494737,9.0178125 2.51684211,8.80375 2.71673684,8.600625 C2.89515789,8.4221875 3.08305263,8.3009375 3.28673684,8.235 L3.89178947,10.889375 C3.72031579,10.9265625 3.53905263,10.9434375 3.35463158,10.9434375 L3.35463158,10.9434375 Z M5.36842105,9.42875 C5.36842105,9.811875 5.28947368,10.12875 5.13884211,10.3821875 C4.98821053,10.6365625 4.73905263,10.82125 4.40684211,10.938125 L4.31431579,10.969375 L3.64484211,8.1696875 L3.61926316,8.125 L3.72347368,8.125 C4.03263158,8.125 4.23978947,8.1340625 4.47663158,8.25375 C4.72010526,8.3765625 4.91526316,8.519375 5.05831579,8.733125 C5.20705263,8.945 5.31126316,9.169375 5.35010526,9.4309375 L5.36842105,9.4228125 L5.36842105,9.42875 L5.36842105,9.42875 Z" id="Shape"></path>
                    </g>
                </g>
            </g>
        </g>
    </g>
</svg>