<?xml version="1.0" encoding="UTF-8" standalone="no"?>
<svg width="35px" height="48px" viewBox="0 0 35 48" version="1.1" xmlns="http://www.w3.org/2000/svg" xmlns:xlink="http://www.w3.org/1999/xlink" xmlns:sketch="http://www.bohemiancoding.com/sketch/ns">
    <!-- Generator: Sketch 3.0.4 (8053) - http://www.bohemiancoding.com/sketch -->
    <title>Nexus Tablet</title>
    <desc>Created with Sketch.</desc>
    <defs></defs>
    <g id="Page-1" stroke="none" stroke-width="1" fill="none" fill-rule="evenodd" sketch:type="MSPage">
        <g id="512" sketch:type="MSArtboardGroup" transform="translate(-65.000000, -77.000000)" fill="#FFFFFF">
            <g id="Alice" sketch:type="MSLayerGroup" transform="translate(2.000000, 78.000000)">
                <g id="Nexus-Tablet" transform="translate(63.000000, 0.000000)" sketch:type="MSShapeGroup">
                    <path d="M33.9059677,2.53741975 L34.9644355,2.53741975 C34.9644355,1.03748148 33.7778226,-0.182777778 32.3179839,-0.182777778 L32.3179839,-0.181617284 L2.6808871,-0.181617284 C1.2216129,-0.181617284 0.0344354839,1.03806173 0.0344354839,2.53858025 L0.0344354839,43.8823333 C0.0344354839,45.3822716 1.22104839,46.6025309 2.6808871,46.6025309 L2.6808871,46.6013704 L32.3179839,46.6013704 C33.7772581,46.6013704 34.9633065,45.3816914 34.9644355,43.8823333 L34.9644355,43.8823333 L34.9644355,2.53858025 L33.9059677,2.53858025 L33.9059677,43.8811728 C33.9059677,44.7811358 33.1935484,45.5128272 32.3185484,45.5128272 L2.68145161,45.5128272 L2.68145161,45.5139877 C1.8058871,45.5139877 1.09403226,44.781716 1.09403226,43.8823333 L1.09403226,2.53858025 C1.09403226,1.63861728 1.80645161,0.906925926 2.68145161,0.906925926 L32.3185484,0.906925926 L32.3185484,0.905765432 C33.1941129,0.905765432 33.9059677,1.63745679 33.9059677,2.53741975 L33.9059677,2.53741975 Z" id="Shape"></path>
                    <path d="M32.8480645,37.5912963 L32.8480645,5.80246914 C32.8480645,5.50190123 32.6115323,5.25819753 32.3185484,5.25819753 L2.68145161,5.25819753 C2.38903226,5.25819753 2.15193548,5.50132099 2.15193548,5.80246914 L2.15193548,37.5912963 C2.15193548,37.8918642 2.38846774,38.1355679 2.68145161,38.1355679 L32.3185484,38.1355679 C32.6109677,38.1355679 32.8480645,37.8918642 32.8480645,37.5912963 L32.8480645,37.5912963 Z M31.7890323,37.0476049 L3.21096774,37.0476049 L3.21096774,6.34674074 L31.7895968,6.34674074 L31.7895968,37.0476049 L31.7890323,37.0476049 Z" id="Shape"></path>
                    <path d="M14.8535484,41.7052469 C14.8535484,43.2051852 16.0401613,44.4254444 17.5,44.4254444 C18.9598387,44.4254444 20.1464516,43.2057654 20.1464516,41.7052469 C20.1464516,40.2047284 18.9592742,38.9856296 17.5,38.9856296 C16.0407258,38.9856296 14.8535484,40.2053086 14.8535484,41.7052469 L14.8535484,41.7052469 Z M19.0874194,41.7052469 C19.0874194,42.6052099 18.375,43.3369012 17.5,43.3369012 C16.625,43.3369012 15.9125806,42.6046296 15.9125806,41.7052469 C15.9125806,40.8058642 16.625,40.0735926 17.5,40.0735926 C18.375,40.0735926 19.0874194,40.805284 19.0874194,41.7052469 L19.0874194,41.7052469 Z" id="Shape"></path>
                    <path d="M19.6169355,4.17081481 C19.9093548,4.17081481 20.1464516,3.92769136 20.1464516,3.62654321 C20.1464516,3.32539506 19.9099194,3.0822716 19.6169355,3.0822716 L15.3830645,3.0822716 C15.0906452,3.0822716 14.8535484,3.32539506 14.8535484,3.62654321 C14.8535484,3.92769136 15.0900806,4.17081481 15.3830645,4.17081481 L19.6169355,4.17081481 L19.6169355,4.17081481 Z" id="Shape"></path>
                </g>
            </g>
        </g>
    </g>
</svg>