<?xml version="1.0" encoding="UTF-8" standalone="no"?>
<svg width="31px" height="46px" viewBox="0 0 31 46" version="1.1" xmlns="http://www.w3.org/2000/svg" xmlns:xlink="http://www.w3.org/1999/xlink" xmlns:sketch="http://www.bohemiancoding.com/sketch/ns">
    <!-- Generator: Sketch 3.0.4 (8053) - http://www.bohemiancoding.com/sketch -->
    <title>notebook</title>
    <desc>Created with Sketch.</desc>
    <defs></defs>
    <g id="Page-1" stroke="none" stroke-width="1" fill="none" fill-rule="evenodd" sketch:type="MSPage">
        <g id="512" sketch:type="MSArtboardGroup" transform="translate(-74.000000, -292.000000)" fill="#FFFFFF">
            <g id="Deepa" sketch:type="MSLayerGroup" transform="translate(13.000000, 283.000000)">
                <g id="notebook" transform="translate(61.000000, 9.000000)" sketch:type="MSShapeGroup">
                    <path d="M28.662,2.10404 L26.6270769,2.10404 C26.3303077,0.9798 25.7081538,0.2139 24.8390769,0.02162 C24.7181538,-0.0046 24.5930769,-0.00598 24.4578462,0.01748 C23.8084615,0.12972 23.3067692,0.8165 22.9278462,2.10404 L21.6230769,2.10404 C21.3267692,0.9798 20.7046154,0.2139 19.836,0.02162 C19.7123077,-0.00506 19.5863077,-0.0069 19.4538462,0.01748 C18.8049231,0.12972 18.3032308,0.8165 17.9238462,2.10404 L16.5083077,2.10404 C16.2115385,0.9798 15.5898462,0.2139 14.7207692,0.02162 C14.5998462,-0.00552 14.4747692,-0.00644 14.3395385,0.01748 C13.6906154,0.12926 13.1884615,0.81604 12.8090769,2.10404 L11.5061538,2.10404 C11.2093846,0.97934 10.5872308,0.21344 9.71815385,0.02116 C9.59676923,-0.00552 9.47123077,-0.00644 9.33646154,0.01702 C8.68753846,0.12926 8.18538462,0.8165 7.80646154,2.10404 L6.51415385,2.10404 C6.21738462,0.97934 5.59523077,0.21344 4.72661538,0.02116 C4.60292308,-0.00552 4.47692308,-0.0069 4.344,0.01702 C3.69461538,0.1288 3.19246154,0.81604 2.81353846,2.10404 L2.38292308,2.10404 L1.53553846,2.10404 C0.588461538,2.10404 0,2.69054 0,3.634 L0,44.46958 C0,45.41396 0.588461538,46 1.53553846,46 L28.662,46 C29.6090769,46 30.1970769,45.41396 30.1970769,44.47004 L30.1970769,42.78046 L30.1970769,3.634 C30.1970769,2.69054 29.6090769,2.10404 28.662,2.10404 L28.662,2.10404 Z M24.6987692,1.42416 C24.8843077,1.53548 25.0541538,1.771 25.1847692,2.10404 L24.3706154,2.10404 C24.5003077,1.7457 24.6184615,1.53318 24.6987692,1.42416 L24.6987692,1.42416 Z M19.6947692,1.4237 C19.8807692,1.53502 20.0501538,1.77054 20.1803077,2.10404 L19.3670769,2.10404 C19.4972308,1.7457 19.6153846,1.53318 19.6947692,1.4237 L19.6947692,1.4237 Z M14.5795385,1.4237 C14.7655385,1.53548 14.9344615,1.77054 15.0650769,2.10404 L14.2513846,2.10404 C14.3815385,1.7457 14.4996923,1.53318 14.5795385,1.4237 L14.5795385,1.4237 Z M9.57692308,1.4237 C9.76292308,1.53502 9.93184615,1.77054 10.0624615,2.10404 L9.24830769,2.10404 C9.37846154,1.74524 9.49707692,1.53318 9.57692308,1.4237 L9.57692308,1.4237 Z M4.58538462,1.42324 C4.77184615,1.53502 4.94030769,1.77008 5.07138462,2.10358 L4.25723077,2.10358 C4.38692308,1.74524 4.50553846,1.53318 4.58538462,1.42324 L4.58538462,1.42324 Z M5.32707692,3.47484 C5.34184615,3.82674 5.32846154,4.21314 5.27815385,4.62898 C5.20615385,5.2325 5.076,5.7799 4.88676923,6.29142 C4.296,6.35582 3.83492308,6.84894 3.83492308,7.45522 L3.83492308,7.64888 C3.83492308,8.2984 4.36338462,8.82556 5.01553846,8.82556 L5.76,8.82556 C6.41215385,8.82556 6.94061538,8.2984 6.94061538,7.64888 L6.94061538,7.45522 C6.94061538,6.99798 6.67615385,6.60606 6.29446154,6.41102 C6.45553846,5.90272 6.57461538,5.36866 6.64384615,4.79182 C6.69969231,4.32998 6.71861538,3.88976 6.70476923,3.47484 L10.3190769,3.47484 C10.3338462,3.82674 10.3204615,4.21314 10.2706154,4.62852 C10.1976923,5.23296 10.0675385,5.78082 9.87830769,6.29234 C9.29353846,6.36272 8.83938462,6.85308 8.83938462,7.45476 L8.83938462,7.64842 C8.83938462,8.29794 9.36784615,8.8251 10.02,8.8251 L10.7649231,8.8251 C11.4166154,8.8251 11.9450769,8.29794 11.9450769,7.64842 L11.9450769,7.45476 C11.9450769,6.99292 11.676,6.59778 11.2883077,6.40504 C11.448,5.89858 11.5670769,5.36682 11.6363077,4.79182 C11.6916923,4.32998 11.7110769,3.88976 11.6972308,3.47484 L15.3221538,3.47484 C15.3364615,3.82674 15.3235385,4.21314 15.2732308,4.62898 C15.1993846,5.24308 15.0715385,5.7822 14.8818462,6.29234 C14.2975385,6.36272 13.8433846,6.85354 13.8433846,7.45476 L13.8433846,7.64842 C13.8433846,8.29794 14.3723077,8.8251 15.024,8.8251 L15.7689231,8.8251 C16.4206154,8.8251 16.9495385,8.29794 16.9495385,7.64842 L16.9495385,7.45476 C16.9495385,6.99246 16.68,6.59686 16.2913846,6.40458 C16.4510769,5.89858 16.5696923,5.36728 16.6389231,4.79228 C16.6943077,4.33044 16.7132308,3.88976 16.6998462,3.47484 L20.4378462,3.47484 C20.4526154,3.8272 20.4392308,4.21314 20.3893846,4.62898 C20.3155385,5.24124 20.1826154,5.79462 19.9896923,6.31166 C19.4681538,6.43356 19.0776923,6.89724 19.0776923,7.45476 L19.0776923,7.64842 C19.0776923,8.29794 19.6066154,8.8251 20.2587692,8.8251 L21.0036923,8.8251 C21.6553846,8.8251 22.1843077,8.29794 22.1843077,7.64842 L22.1843077,7.45476 C22.1843077,6.95244 21.8667692,6.52602 21.4218462,6.35766 C21.5741538,5.865 21.6876923,5.34888 21.7550769,4.79228 C21.8104615,4.33044 21.8293846,3.88976 21.816,3.47484 L25.4423077,3.47484 C25.4570769,3.82674 25.4436923,4.21314 25.3938462,4.62898 C25.3190769,5.2509 25.1884615,5.79554 24.9950769,6.31166 C24.4730769,6.4331 24.0826154,6.89724 24.0826154,7.45476 L24.0826154,7.64842 C24.0826154,8.29794 24.6110769,8.8251 25.2636923,8.8251 L26.0081538,8.8251 C26.6603077,8.8251 27.1887692,8.29794 27.1887692,7.64842 L27.1887692,7.45476 C27.1887692,6.95244 26.8716923,6.52648 26.4267692,6.35766 C26.5790769,5.86546 26.6926154,5.34934 26.7595385,4.79182 C26.8149231,4.32998 26.8343077,3.8893 26.8204615,3.47438 L28.6643077,3.47438 C28.7501538,3.47438 28.7972308,3.4845 28.8073846,3.4822 C28.8133846,3.50244 28.824,3.54936 28.824,3.634 L28.824,42.78046 C28.824,42.86556 28.8133846,42.91248 28.8161538,42.92306 C28.7958462,42.9295 28.7492308,42.94008 28.6643077,42.94008 L2.38153846,42.93962 C2.30723077,42.93962 2.26292308,42.9318 2.24538462,42.9318 L2.23984615,42.9318 C2.23338462,42.91156 2.22323077,42.86464 2.22323077,42.78046 L2.22323077,3.634 C2.22323077,3.5489 2.23384615,3.50244 2.23107692,3.4914 C2.25138462,3.48496 2.298,3.47438 2.38338462,3.47438 L5.32707692,3.47438 L5.32707692,3.47484 Z M28.8138462,44.61218 C28.7935385,44.61908 28.7469231,44.6292 28.662,44.6292 L1.53553846,44.6292 C1.45984615,44.6292 1.41461538,44.62092 1.39753846,44.62092 C1.39523077,44.62092 1.39338462,44.62092 1.392,44.62138 C1.38553846,44.60068 1.37492308,44.55468 1.37492308,44.46958 L1.37492308,43.99026 C1.63246154,44.19312 1.97076923,44.30996 2.38292308,44.30996 L28.662,44.31042 C28.7178462,44.31042 28.7676923,44.30122 28.8216923,44.298 L28.8216923,44.46958 C28.8216923,44.55514 28.8110769,44.60114 28.8138462,44.61218 L28.8138462,44.61218 Z" id="Shape"></path>
                </g>
            </g>
        </g>
    </g>
</svg>