<?xml version="1.0" encoding="UTF-8" standalone="no"?>
<svg width="36px" height="37px" viewBox="0 0 36 37" version="1.1" xmlns="http://www.w3.org/2000/svg" xmlns:xlink="http://www.w3.org/1999/xlink" xmlns:sketch="http://www.bohemiancoding.com/sketch/ns">
    <!-- Generator: Sketch 3.0.4 (8053) - http://www.bohemiancoding.com/sketch -->
    <title>Receipts</title>
    <desc>Created with Sketch.</desc>
    <defs></defs>
    <g id="Page-1" stroke="none" stroke-width="1" fill="none" fill-rule="evenodd" sketch:type="MSPage">
        <g id="512" sketch:type="MSArtboardGroup" transform="translate(-126.000000, -83.000000)" fill="#FFFFFF">
            <g id="Alice" sketch:type="MSLayerGroup" transform="translate(2.000000, 78.000000)">
                <g id="Receipts" transform="translate(124.000000, 5.000000)" sketch:type="MSShapeGroup">
                    <g id="icon_39642" transform="translate(0.553846, 0.552239)">
                        <path d="M2.76923077,4.97014925 L2.76923077,35.619403 C2.76923077,36.0766567 3.14141538,36.4477612 3.6,36.4477612 L4.13667692,36.4477612 C4.35655385,36.4477612 4.56812308,36.3605075 4.72430769,36.2053284 L7.38498462,33.5523731 L10.0456615,36.2053284 C10.2007385,36.3605075 10.4123077,36.4477612 10.6321846,36.4477612 L10.7822769,36.4477612 C11.0021538,36.4477612 11.2137231,36.3605075 11.3699077,36.2053284 L14.0305846,33.5523731 L16.6912615,36.2053284 C16.8468923,36.3605075 17.0584615,36.4477612 17.2783385,36.4477612 L17.4284308,36.4477612 C17.6483077,36.4477612 17.8598769,36.3605075 18.0160615,36.2053284 L20.6767385,33.5523731 L23.3374154,36.2053284 C23.4930462,36.3605075 23.7046154,36.4477612 23.9244923,36.4477612 L24.0745846,36.4477612 C24.2944615,36.4477612 24.5060308,36.3605075 24.6622154,36.2053284 L27.3228923,33.5523731 L29.9835692,36.2053284 C30.1392,36.3605075 30.3507692,36.4477612 30.5706462,36.4477612 L31.2923077,36.4477612 C31.7508923,36.4477612 32.1230769,36.0766567 32.1230769,35.619403 L32.1230769,4.97014925 L34.8923077,4.97014925 L34.8923077,4.97014925 C34.8923077,2.22521162 27.0835171,0 17.4461538,0 L17.4461538,0 C7.81090913,0 0,4.97014925 0,4.97014925 L0,4.97014925 L2.76923077,4.97014925 Z M30.4615385,34.3393134 L27.9105231,31.7957015 C27.5859692,31.4720896 27.0603692,31.4720896 26.7358154,31.7957015 L24.0003692,34.523209 L21.2649231,31.7957015 C21.1026462,31.6338955 20.8899692,31.5532687 20.6772923,31.5532687 C20.4646154,31.5532687 20.2519385,31.6338955 20.0896615,31.7957015 L17.3542154,34.523209 L14.6187692,31.7957015 C14.2942154,31.4720896 13.7686154,31.4720896 13.4440615,31.7957015 L10.7086154,34.523209 L7.97316923,31.7957015 C7.64861538,31.4720896 7.12301538,31.4720896 6.79846154,31.7957015 L4.43076923,34.1548657 L4.43076923,4.97014925 L30.4615385,4.97014925 L30.4615385,34.3393134 L30.4615385,34.3393134 Z" id="Shape"></path>
                        <rect id="Rectangle-path" x="8.30769231" y="7.73134328" width="16.0615385" height="1.65671642"></rect>
                        <rect id="Rectangle-path" x="8.30769231" y="12.7014925" width="12.7384615" height="1.65671642"></rect>
                        <rect id="Rectangle-path" x="8.30769231" y="18.2238806" width="16.0615385" height="1.65671642"></rect>
                        <rect id="Rectangle-path" x="8.30769231" y="23.7462687" width="16.0615385" height="1.65671642"></rect>
                    </g>
                    <rect id="Rectangle-5" x="0" y="0" width="36" height="5.52238806" rx="1"></rect>
                </g>
            </g>
        </g>
    </g>
</svg>