<?xml version="1.0" encoding="UTF-8" standalone="no"?>
<svg width="39px" height="51px" viewBox="0 0 39 51" version="1.1" xmlns="http://www.w3.org/2000/svg" xmlns:xlink="http://www.w3.org/1999/xlink" xmlns:sketch="http://www.bohemiancoding.com/sketch/ns">
    <!-- Generator: Sketch 3.0.4 (8053) - http://www.bohemiancoding.com/sketch -->
    <title>reportcard</title>
    <desc>Created with Sketch.</desc>
    <defs></defs>
    <g id="Page-1" stroke="none" stroke-width="1" fill="none" fill-rule="evenodd" sketch:type="MSPage">
        <g id="512" sketch:type="MSArtboardGroup" transform="translate(-132.000000, -366.000000)" fill="#FFFFFF">
            <g id="Daniel" sketch:type="MSLayerGroup" transform="translate(9.000000, 364.000000)">
                <path d="M131.075137,21.3810515 L154.388589,21.3810515 L154.388589,19.1281134 L131.075137,19.1281134 L131.075137,21.3810515 L131.075137,21.3810515 Z M131.075137,25.8806186 L141.139274,25.8806186 L141.139274,23.6303093 L131.075137,23.6303093 L131.075137,25.8806186 L131.075137,25.8806186 Z M131.075137,16.7085052 L154.388589,16.7085052 L154.388589,14.4597732 L131.075137,14.4597732 L131.075137,16.7085052 L131.075137,16.7085052 Z M154.389123,9.96178351 L131.075137,9.96178351 L131.075137,12.2126186 L154.388589,12.2126186 L154.388589,9.96178351 L154.389123,9.96178351 Z M138.520397,52.823866 L142.274014,50.8711443 L146.028164,52.823866 L146.028164,43.1832887 L141.27337,43.1832887 L138.520397,52.823866 L138.520397,52.823866 Z M123,48.9289381 L137.213096,48.9289381 L137.795425,46.8884124 L125.688329,46.8884124 L125.688329,4.44852577 L159.438288,4.44852577 L159.438288,46.9662268 L156.762781,46.9525567 L157.326945,48.9294639 L161.934822,48.9294639 L161.970082,35.3203505 L161.970082,2 L123,2 L123,48.9289381 Z M147.270822,31.1299381 C145.179247,31.1299381 143.483548,32.8008454 143.483548,34.8587216 C143.483548,36.9144948 145.179247,38.5864536 147.270822,38.5864536 C149.362397,38.5864536 151.059164,36.9144948 151.059164,34.8587216 C151.059164,32.8008454 149.362397,31.1299381 147.270822,31.1299381 L147.270822,31.1299381 Z M148.890658,43.1832887 L148.890658,52.823866 L152.644274,50.8711443 L156.396822,52.823866 L153.645452,43.1832887 L148.890658,43.1832887 L148.890658,43.1832887 Z M151.402685,41.9025052 L151.895795,39.4103402 L154.428123,38.9255773 L153.588822,36.5248969 L155.536151,34.8592474 L153.588822,33.1925464 L154.428123,30.7929175 L151.895795,30.3071031 L151.402685,27.8159897 L148.964384,28.6414536 L147.271356,26.7255361 L145.578863,28.6414536 L143.140027,27.8159897 L142.646918,30.3071031 L140.114589,30.7929175 L140.95389,33.1925464 L139.007096,34.8592474 L140.95389,36.5248969 L140.114589,38.9255773 L142.646918,39.4103402 L143.140027,41.9025052 L145.578863,41.0759897 L147.271356,42.992433 L148.964384,41.0759897 L151.402685,41.9025052 L151.402685,41.9025052 Z M142.115877,34.8587216 C142.115877,32.0563505 144.42489,29.7860619 147.270822,29.7860619 C150.11889,29.7860619 152.425767,32.0563505 152.425767,34.8587216 C152.425767,37.6589897 150.11889,39.9303299 147.270822,39.9303299 C144.42489,39.9308557 142.115877,37.6589897 142.115877,34.8587216 L142.115877,34.8587216 Z" id="reportcard" sketch:type="MSShapeGroup"></path>
            </g>
        </g>
    </g>
</svg>