<?xml version="1.0" encoding="UTF-8" standalone="no"?>
<svg width="34px" height="51px" viewBox="0 0 34 51" version="1.1" xmlns="http://www.w3.org/2000/svg" xmlns:xlink="http://www.w3.org/1999/xlink" xmlns:sketch="http://www.bohemiancoding.com/sketch/ns">
    <!-- Generator: Sketch 3.0.4 (8053) - http://www.bohemiancoding.com/sketch -->
    <title>Shape</title>
    <desc>Created with Sketch.</desc>
    <defs></defs>
    <g id="Page-1" stroke="none" stroke-width="1" fill="none" fill-rule="evenodd" sketch:type="MSPage">
        <g id="512" sketch:type="MSArtboardGroup" transform="translate(-5.000000, -8.000000)" fill="#FFFFFF">
            <g id="Tomas" sketch:type="MSLayerGroup" transform="translate(5.000000, 8.000000)">
                <g id="Cables" sketch:type="MSShapeGroup">
                    <path d="M33.8,7.8 C33.6,7.6 33.4,7.6 33.2,7.6 L33.2,7.6 L27.9,7.6 C27.4,7.6 27.1,8 27.1,8.4 L27.1,13.7 C27.1,14.2 27.5,14.5 27.9,14.5 L28.7,14.5 L28.7,18.1 L18.4,24.6 L18.4,7.7 L20.2,7.7 C20.5,7.7 20.8,7.5 20.9,7.3 C21.1,7 21.1,6.7 20.9,6.5 L17.4,0.4 C17.1,-0.1 16.2,-0.1 16,0.4 L12.5,6.5 C12.3,6.8 12.3,7.1 12.5,7.3 C12.6,7.6 12.9,7.7 13.2,7.7 L13.2,7.7 L15,7.7 L15,32.1 L5.2,25 L5.2,20.8 C6.3,20.2 7,19 7,17.7 C7,15.8 5.4,14.2 3.5,14.2 C1.6,14.2 0,15.8 0,17.7 C0,18.9 0.6,20.1 1.7,20.7 L1.7,25.8 C1.7,26.3 1.9,26.7 2.2,27 L2.3,27.1 L15,36.7 L15,39.2 C12.9,39.9 11.5,41.9 11.5,44.2 C11.5,47.1 13.9,49.5 16.8,49.5 C18.2,49.5 19.5,49 20.5,48 C21.5,47 22,45.7 22,44.3 C22,42.1 20.6,40.1 18.5,39.3 L18.5,29.4 L31.7,20.5 L31.8,20.4 C32.1,20.1 32.3,19.6 32.3,19.2 L32.3,14.7 L33.2,14.7 C33.7,14.7 34,14.3 34,13.9 L34,8.4 C34,8.2 33.9,8 33.8,7.8 L33.8,7.8 Z" id="Shape"></path>
                </g>
            </g>
        </g>
    </g>
</svg>