<?xml version="1.0" encoding="UTF-8" standalone="no"?>
<svg width="47px" height="16px" viewBox="0 0 47 16" version="1.1" xmlns="http://www.w3.org/2000/svg" xmlns:xlink="http://www.w3.org/1999/xlink" xmlns:sketch="http://www.bohemiancoding.com/sketch/ns">
    <!-- Generator: Sketch 3.0.4 (8053) - http://www.bohemiancoding.com/sketch -->
    <title>sunglasses</title>
    <desc>Created with Sketch.</desc>
    <defs></defs>
    <g id="Page-1" stroke="none" stroke-width="1" fill="none" fill-rule="evenodd" sketch:type="MSPage">
        <g id="512" sketch:type="MSArtboardGroup" transform="translate(-130.000000, -240.000000)" fill="#0A0B0C">
            <g id="John" sketch:type="MSLayerGroup" transform="translate(60.000000, 224.000000)">
                <g id="sunglasses" transform="translate(70.000000, 16.000000)" sketch:type="MSShapeGroup">
                    <path d="M3.38813179e-21,1.02511 C7.37301,-0.66705 13.3418,-0.08473 19.9533,1.456114 C20.933636,1.684551 21.96943,1.939199 23.06324,1.972645 C24.88487,2.0284002 26.93258,1.575011 28.69822,1.131469 C35.66856,-0.619551 41.11362,0.29124 46.36082,1.412366 L45.973223,4.513146 C45.154054,4.5312892 44.896453,4.913204 44.662413,5.658856 C43.437653,9.560846 44.480792,16.274956 35.426563,15.485476 C29.470153,14.966142 27.764323,13.334096 24.925463,6.158566 C24.683958,5.548176 24.526882,4.539616 23.147543,4.576896 C22.368713,4.5979557 21.672113,4.735563 21.429133,6.088766 C20.976312,8.610246 17.533243,15.460976 10.542433,15.453436 C4.367773,15.4468075 2.012383,12.241756 1.731113,5.179436 C1.6961903,4.302542 0.932019,4.136106 0.473703,4.125846 L-2.7e-05,1.025066 L3.38813179e-21,1.02511 Z M2.28252,2.40323 C2.936507,2.40323 3.46686,2.538224 3.46686,2.704694 C3.46686,2.871164 2.936504,3.006158 2.28252,3.006158 C1.628571,3.006158 1.09822,2.871164 1.09822,2.704694 C1.09822,2.538224 1.628576,2.40323 2.28252,2.40323 L2.28252,2.40323 Z M44.20752,2.704694 C44.861507,2.704694 45.39186,2.839688 45.39186,3.006158 C45.39186,3.172628 44.861504,3.307622 44.20752,3.307622 C43.553571,3.307622 43.02322,3.172628 43.02322,3.006158 C43.02322,2.839688 43.553576,2.704694 44.20752,2.704694 L44.20752,2.704694 Z M29.76112,2.896504 C30.554495,2.634697 32.3443,2.498832 32.00648,2.8211663 C30.35659,4.1908463 28.27615,6.5709663 29.14479,9.7639763 C29.2320211,9.9648763 23.50026,4.9624763 29.761127,2.8965063 L29.76112,2.896504 Z" id="Shape"></path>
                </g>
            </g>
        </g>
    </g>
</svg>