<?xml version="1.0" encoding="UTF-8" standalone="no"?>
<svg width="40px" height="40px" viewBox="0 0 40 40" version="1.1" xmlns="http://www.w3.org/2000/svg" xmlns:xlink="http://www.w3.org/1999/xlink" xmlns:sketch="http://www.bohemiancoding.com/sketch/ns">
    <!-- Generator: Sketch 3.0.4 (8053) - http://www.bohemiancoding.com/sketch -->
    <title>icon_24288</title>
    <desc>Created with Sketch.</desc>
    <defs></defs>
    <g id="Page-1" stroke="none" stroke-width="1" fill="none" fill-rule="evenodd" sketch:type="MSPage">
        <g id="512" sketch:type="MSArtboardGroup" transform="translate(-8.000000, -371.000000)" fill="#FFFFFF">
            <g id="Daniel" sketch:type="MSLayerGroup" transform="translate(9.000000, 364.000000)">
                <g id="icon_24288" transform="translate(0.000000, 7.000000)" sketch:type="MSShapeGroup">
                    <path d="M31.7261695,4.124 C31.5847119,4.048 31.4558136,3.91466667 31.3004746,3.86466667 C30.2395424,3.54 29.1772881,3.216 28.1150339,2.89466667 C28.1289153,2.888 28.1355254,2.884 28.1355254,2.884 C28.1355254,2.884 27.5597797,0.094 26.7910169,0.0553333333 C26.0229153,0.0166666667 24.9857797,-0.138666667 24.178678,0.326666667 C23.5037797,0.715333333 20.4102203,0.698 19.1694915,0.704666667 C17.9287627,0.698 14.8345424,0.716 14.1603051,0.326666667 C13.3532034,-0.138 12.3160678,0.0166666667 11.5479661,0.0553333333 C10.7792034,0.094 10.2034576,2.884 10.2034576,2.884 C10.2034576,2.884 10.2107288,2.888 10.2239492,2.89466667 C9.16169492,3.216 8.09944068,3.54 7.03850847,3.86466667 C6.88383051,3.914 6.75427119,4.048 6.61281356,4.124 C1.42052542,6.91 -0.270355932,22.5893333 -0.270355932,22.5893333 L1.07811864,34.3653333 L1.73054237,38.368 L2.20515254,38.29 L2.48277966,40 L6.73840678,39.2966667 L6.46077966,37.5866667 L6.94067797,37.5073333 L6.21091525,24.5013333 C6.21091525,24.5013333 7.62681356,15.9 8.02805085,15.5406667 L8.64345763,38.054 L19.1694915,38.054 L29.6968475,38.054 L30.3122542,15.5406667 C30.7134915,15.9 32.1293898,24.5013333 32.1293898,24.5013333 L31.3996271,37.5073333 L31.8795254,37.5866667 L31.6018983,39.2966667 L35.8562034,40 L36.1338305,38.29 L36.6084407,38.368 L37.2608644,34.3653333 L38.609339,22.5893333 C38.609339,22.5893333 36.9191186,6.91 31.7261695,4.124 L31.7261695,4.124 Z M19.1694915,2.328 C23.0245424,2.28866667 25.5773898,1.708 25.5773898,1.708 C25.5773898,1.708 22.4547458,3.31 20.4531864,3.984 C20.5767966,5.87333333 20.7208983,7.858 20.8768983,9.52666667 C20.9978644,10.8266667 21.1280847,11.9313333 21.253678,12.628 C21.411,12.6006667 21.5689831,12.6873333 21.6198814,12.846 L21.9424576,13.8506667 C21.9993051,14.0246667 21.9047797,14.2113333 21.7329153,14.2673333 L21.2642542,14.4206667 C21.0910678,14.4773333 20.9066441,14.382 20.8504576,14.2073333 L20.5272203,13.2033333 C20.4730169,13.0353333 20.5615932,12.8573333 20.7228814,12.7946667 C20.7162712,12.7593333 20.709,12.7293333 20.7030508,12.6926667 C20.6138136,12.1913333 20.5278814,11.5213333 20.4432712,10.7353333 C20.2740508,9.16533333 20.1140847,7.13733333 19.9759322,5.12866667 C19.9534576,4.79933333 19.9323051,4.474 19.9104915,4.15 C19.6123729,4.23066667 19.3572203,4.278 19.1694915,4.278 C18.9817627,4.278 18.7266102,4.23066667 18.4284915,4.15 C18.3121525,5.91533333 18.1779661,7.756 18.0332034,9.344 C17.901,10.7946667 17.7615254,12.0193333 17.6167627,12.7946667 C17.7773898,12.8573333 17.8666271,13.0353333 17.8117627,13.2033333 L17.4885254,14.2073333 C17.432339,14.382 17.2485763,14.4773333 17.0753898,14.4206667 L16.6067288,14.2673333 C16.4342034,14.2113333 16.339678,14.024 16.3965254,13.8506667 L16.7197627,12.846 C16.770661,12.6873333 16.9286441,12.6006667 17.0866271,12.628 C17.1309153,12.3813333 17.1765254,12.086 17.2208136,11.7473333 C17.3483898,10.7786667 17.4739831,9.47733333 17.5916441,8.05133333 C17.6980678,6.74666667 17.7978814,5.34133333 17.8864576,3.984 C15.8848983,3.31 12.7615932,1.708 12.7615932,1.708 C12.7615932,1.708 15.3144407,2.28866667 19.1694915,2.328 L19.1694915,2.328 Z M27.6357966,33.7266667 C26.7910169,33.73 26.1174407,33.3953333 25.6342373,32.9013333 C25.1477288,32.4073333 24.8350678,31.7686667 24.6235424,31.1286667 C24.2897288,30.1093333 24.2117288,29.0766667 24.1932203,28.574 L19.2078305,28.574 L19.1337966,28.574 L14.1477458,28.574 C14.1351864,28.9193333 14.0942034,29.5126667 13.962,30.1813333 C13.7795593,31.0973333 13.4345085,32.1586667 12.7073898,32.9013333 C12.2241864,33.3953333 11.5499492,33.73 10.7058305,33.7266667 L10.7058305,33.1066667 C11.3932881,33.1033333 11.8791356,32.8566667 12.2717797,32.4626667 C12.6624407,32.0693333 12.9433729,31.5153333 13.1344068,30.9326667 C13.5191186,29.7686667 13.5409322,28.5113333 13.5396102,28.2993333 L13.5396102,28.268 L13.534322,27.9526667 L19.1344576,27.9526667 L19.2084915,27.9526667 L24.8086271,27.9526667 L24.803339,28.2686667 L24.802678,28.2993333 C24.802678,28.4593333 24.8132542,29.2046667 24.9824746,30.06 C25.1490508,30.9166667 25.4835254,31.8746667 26.0705085,32.4626667 C26.4631525,32.8566667 26.949,33.1033333 27.6371186,33.1066667 L27.6371186,33.7266667 L27.6357966,33.7266667 Z" id="Shape"></path>
                </g>
            </g>
        </g>
    </g>
</svg>