<?xml version="1.0" encoding="UTF-8" standalone="no"?>
<svg width="48px" height="32px" viewBox="0 0 48 32" version="1.1" xmlns="http://www.w3.org/2000/svg" xmlns:xlink="http://www.w3.org/1999/xlink" xmlns:sketch="http://www.bohemiancoding.com/sketch/ns">
    <!-- Generator: Sketch 3.0.4 (8053) - http://www.bohemiancoding.com/sketch -->
    <title>toll</title>
    <desc>Created with Sketch.</desc>
    <defs></defs>
    <g id="Page-1" stroke="none" stroke-width="1" fill="none" fill-rule="evenodd" sketch:type="MSPage">
        <g id="512" sketch:type="MSArtboardGroup" transform="translate(-60.000000, -235.000000)" fill="#FFFFFF">
            <g id="John" sketch:type="MSLayerGroup" transform="translate(60.000000, 224.000000)">
                <g id="toll" transform="translate(0.000000, 11.000000)" sketch:type="MSShapeGroup">
                    <path d="M4.00989318,0 C1.79529033,0 0,1.78902751 0,4.0042577 L0,27.9957423 C0,30.2072328 1.79405245,32 4.00989318,32 L43.9901068,32 C46.2047097,32 48,30.2109725 48,27.9957423 L48,4.0042577 C48,1.79276724 46.2059475,0 43.9901068,0 L4.00989318,0 Z M13.28,22.92 L13.28,23.92 L40.28,23.92 L40.28,22.92 L13.28,22.92 Z M13.28,25.52 L13.28,26.52 L40.28,26.52 L40.28,25.52 L13.28,25.52 Z M14.9604492,20.92 L13.9960938,20.92 L13.9960938,18.1392383 L13.1245117,18.1392383 L13.1245117,17.3506641 L15.8295898,17.3506641 L15.8295898,18.1392383 L14.9604492,18.1392383 L14.9604492,20.92 Z M19.6796875,19.1304492 C19.6796875,19.7310382 19.5323908,20.1875766 19.237793,20.5000781 C18.9431951,20.8125797 18.5118844,20.9688281 17.9438477,20.9688281 C17.383949,20.9688281 16.9546727,20.8117659 16.6560059,20.4976367 C16.357339,20.1835075 16.2080078,19.7261553 16.2080078,19.1255664 C16.2080078,18.5314879 16.3565252,18.0777978 16.6535645,17.7644824 C16.9506037,17.4511671 17.3823214,17.2945117 17.9487305,17.2945117 C18.5167672,17.2945117 18.9472642,17.4499464 19.2402344,17.7608203 C19.5332046,18.0716943 19.6796875,18.5282327 19.6796875,19.1304492 L19.6796875,19.1304492 Z M17.2236328,19.1304492 C17.2236328,19.8205568 17.463702,20.1656055 17.9438477,20.1656055 C18.1879895,20.1656055 18.3690587,20.0817847 18.4870605,19.9141406 C18.6050624,19.7464966 18.6640625,19.4852687 18.6640625,19.1304492 C18.6640625,18.7740021 18.6042486,18.5107398 18.4846191,18.3406543 C18.3649896,18.1705688 18.1863619,18.0855273 17.9487305,18.0855273 C17.4653296,18.0855273 17.2236328,18.4338312 17.2236328,19.1304492 L17.2236328,19.1304492 Z M20.3242188,20.92 L20.3242188,17.3506641 L21.2885742,17.3506641 L21.2885742,20.1411914 L22.6630859,20.1411914 L22.6630859,20.92 L20.3242188,20.92 Z M23.234375,20.92 L23.234375,17.3506641 L24.1987305,17.3506641 L24.1987305,20.1411914 L25.5732422,20.1411914 L25.5732422,20.92 L23.234375,20.92 Z M30.0336914,18.485918 C30.0336914,18.884683 29.9160982,19.192704 29.6809082,19.4099902 C29.4457182,19.6272765 29.1116558,19.735918 28.6787109,19.735918 L28.4077148,19.735918 L28.4077148,20.92 L27.4433594,20.92 L27.4433594,17.3506641 L28.6787109,17.3506641 C29.1295595,17.3506641 29.4680978,17.4491331 29.6943359,17.6460742 C29.920574,17.8430153 30.0336914,18.1229604 30.0336914,18.485918 L30.0336914,18.485918 Z M28.4077148,18.9497852 L28.5834961,18.9497852 C28.7283536,18.9497852 28.8435054,18.9090955 28.9289551,18.8277148 C29.0144047,18.7463342 29.0571289,18.6340307 29.0571289,18.4908008 C29.0571289,18.2499142 28.9236667,18.1294727 28.6567383,18.1294727 L28.4077148,18.1294727 L28.4077148,18.9497852 Z M32.7924805,20.92 L32.6166992,20.2510547 L31.4570312,20.2510547 L31.2763672,20.92 L30.2167969,20.92 L31.3813477,17.3360156 L32.6679688,17.3360156 L33.847168,20.92 L32.7924805,20.92 Z M32.4165039,19.4600391 L32.2626953,18.8741016 C32.2268878,18.7438926 32.1833499,18.5754372 32.1320801,18.3687305 C32.0808103,18.1620237 32.0470378,18.0139132 32.0307617,17.9243945 C32.0161132,18.0074028 31.9872235,18.1441201 31.9440918,18.3345508 C31.9009601,18.5249814 31.8053393,18.9001404 31.6572266,19.4600391 L32.4165039,19.4600391 Z M36.5668945,19.8360156 C36.5668945,20.0573709 36.5107427,20.2539021 36.3984375,20.4256152 C36.2861323,20.5973283 36.1241873,20.7307905 35.9125977,20.8260059 C35.7010081,20.9212212 35.4528009,20.9688281 35.1679688,20.9688281 C34.9303374,20.9688281 34.7309578,20.9521453 34.5698242,20.9187793 C34.4086906,20.8854132 34.241049,20.827227 34.0668945,20.7442188 L34.0668945,19.8848438 C34.2508147,19.9792453 34.4420563,20.0528936 34.640625,20.105791 C34.8391937,20.1586884 35.0214835,20.1851367 35.1875,20.1851367 C35.3307299,20.1851367 35.4357093,20.160316 35.5024414,20.1106738 C35.5691735,20.0610317 35.6025391,19.9971488 35.6025391,19.9190234 C35.6025391,19.8701951 35.5891115,19.8274709 35.5622559,19.7908496 C35.5354003,19.7542283 35.4922692,19.7172007 35.4328613,19.6797656 C35.3734535,19.6423305 35.2151706,19.5658339 34.9580078,19.4502734 C34.7252593,19.3444786 34.5507005,19.2419406 34.4343262,19.1426563 C34.3179519,19.0433719 34.2316897,18.9294407 34.1755371,18.8008594 C34.1193845,18.672278 34.0913086,18.5200985 34.0913086,18.3443164 C34.0913086,18.0155387 34.2109363,17.7591936 34.4501953,17.5752734 C34.6894543,17.3913532 35.0182271,17.2993945 35.4365234,17.2993945 C35.8059914,17.2993945 36.182778,17.3848429 36.5668945,17.5557422 L36.2714844,18.3003711 C35.9378239,18.1473755 35.6497408,18.0708789 35.4072266,18.0708789 C35.2819004,18.0708789 35.1907555,18.0928513 35.1337891,18.1367969 C35.0768226,18.1807424 35.0483398,18.2352666 35.0483398,18.3003711 C35.0483398,18.3703584 35.0845537,18.4330206 35.1569824,18.4883594 C35.2294112,18.5436982 35.4259424,18.6446086 35.746582,18.7910938 C36.0542008,18.9294408 36.2678217,19.0779582 36.3874512,19.2366504 C36.5070807,19.3953426 36.5668945,19.595129 36.5668945,19.8360156 L36.5668945,19.8360156 Z M39.4526367,19.8360156 C39.4526367,20.0573709 39.3964849,20.2539021 39.2841797,20.4256152 C39.1718744,20.5973283 39.0099294,20.7307905 38.7983398,20.8260059 C38.5867502,20.9212212 38.3385431,20.9688281 38.0537109,20.9688281 C37.8160795,20.9688281 37.6167,20.9521453 37.4555664,20.9187793 C37.2944328,20.8854132 37.1267912,20.827227 36.9526367,20.7442188 L36.9526367,19.8848438 C37.1365569,19.9792453 37.3277985,20.0528936 37.5263672,20.105791 C37.7249359,20.1586884 37.9072257,20.1851367 38.0732422,20.1851367 C38.2164721,20.1851367 38.3214515,20.160316 38.3881836,20.1106738 C38.4549157,20.0610317 38.4882812,19.9971488 38.4882812,19.9190234 C38.4882812,19.8701951 38.4748536,19.8274709 38.447998,19.7908496 C38.4211424,19.7542283 38.3780114,19.7172007 38.3186035,19.6797656 C38.2591957,19.6423305 38.1009127,19.5658339 37.84375,19.4502734 C37.6110014,19.3444786 37.4364426,19.2419406 37.3200684,19.1426563 C37.2036941,19.0433719 37.1174319,18.9294407 37.0612793,18.8008594 C37.0051267,18.672278 36.9770508,18.5200985 36.9770508,18.3443164 C36.9770508,18.0155387 37.0966785,17.7591936 37.3359375,17.5752734 C37.5751965,17.3913532 37.9039693,17.2993945 38.3222656,17.2993945 C38.6917336,17.2993945 39.0685202,17.3848429 39.4526367,17.5557422 L39.1572266,18.3003711 C38.823566,18.1473755 38.535483,18.0708789 38.2929688,18.0708789 C38.1676426,18.0708789 38.0764977,18.0928513 38.0195312,18.1367969 C37.9625648,18.1807424 37.934082,18.2352666 37.934082,18.3003711 C37.934082,18.3703584 37.9702959,18.4330206 38.0427246,18.4883594 C38.1151534,18.5436982 38.3116846,18.6446086 38.6323242,18.7910938 C38.9399429,18.9294408 39.1535639,19.0779582 39.2731934,19.2366504 C39.3928229,19.3953426 39.4526367,19.595129 39.4526367,19.8360156 L39.4526367,19.8360156 Z M6.82275391,9 L5.46582031,9 L5.46582031,6.96289062 L3.89697266,6.96289062 L3.89697266,9 L2.54003906,9 L2.54003906,4.00292969 L3.89697266,4.00292969 L3.89697266,5.85546875 L5.46582031,5.85546875 L5.46582031,4.00292969 L6.82275391,4.00292969 L6.82275391,9 Z M10.5825195,9 L9.21191406,9 L9.21191406,6.35449219 C9.21191406,6.03320152 9.21874993,5.73925915 9.23242188,5.47265625 C9.14811156,5.57519583 9.0432949,5.68229111 8.91796875,5.79394531 L8.35058594,6.26220703 L7.64990234,5.40087891 L9.36572266,4.00292969 L10.5825195,4.00292969 L10.5825195,9 Z M5.13507407,11.0996667 L5.68340741,11.0996667 L5.68340741,13.6159074 L6.17081481,13.6159074 L6.17081481,14.28 L4.23946296,14.28 L4.23946296,13.6159074 L4.89746296,13.6159074 L4.89746296,12.0379259 C4.64969629,12.1922724 4.40599503,12.3100613 4.16635185,12.3912963 L3.9592037,11.9526296 L5.13507407,11.0996667 Z M7.73051852,11.124037 L8.5712963,11.124037 L7.69396296,13.098037 C7.57617225,13.3620507 7.48478428,13.5265491 7.4197963,13.591537 C7.46041378,13.5834135 7.5030615,13.5793519 7.54774074,13.5793519 L8.2362037,13.5793519 C8.28088294,13.5793519 8.32962319,13.5813827 8.38242593,13.5854444 C8.37836418,13.5326417 8.37633333,13.4960865 8.37633333,13.4757778 C8.37633333,13.3417401 8.39054924,13.1244398 8.41898148,12.8238704 L8.486,12.111037 L9.12572222,11.9648148 L9.12572222,13.0432037 C9.12572222,13.2950321 9.11962969,13.4757772 9.10744444,13.5854444 C9.19274117,13.5813827 9.25772817,13.5793519 9.30240741,13.5793519 L9.5582963,13.5793519 L9.5582963,14.28 L9.28412963,14.28 C9.21101815,14.28 9.14806199,14.2759383 9.09525926,14.2678148 C9.115568,14.328741 9.12572222,14.4018514 9.12572222,14.4871481 L9.12572222,15.3462037 L8.35196296,15.4436852 L8.35196296,14.414037 C8.35196296,14.381543 8.35602465,14.330772 8.36414815,14.2617222 C8.31134541,14.2739075 8.24635841,14.28 8.16918519,14.28 L6.55464815,14.28 L6.55464815,13.7255741 L7.73051852,11.124037 Z" id="Rectangle-6"></path>
                </g>
            </g>
        </g>
    </g>
</svg>