<?xml version="1.0" encoding="UTF-8" standalone="no"?>
<svg width="48px" height="32px" viewBox="0 0 48 32" version="1.1" xmlns="http://www.w3.org/2000/svg" xmlns:xlink="http://www.w3.org/1999/xlink" xmlns:sketch="http://www.bohemiancoding.com/sketch/ns">
    <!-- Generator: Sketch 3.0.4 (8053) - http://www.bohemiancoding.com/sketch -->
    <title>transit</title>
    <desc>Created with Sketch.</desc>
    <defs></defs>
    <g id="Page-1" stroke="none" stroke-width="1" fill="none" fill-rule="evenodd" sketch:type="MSPage">
        <g id="512" sketch:type="MSArtboardGroup" transform="translate(-60.000000, -235.000000)">
            <g id="John" sketch:type="MSLayerGroup" transform="translate(60.000000, 224.000000)">
                <g id="transit" transform="translate(0.000000, 11.000000)" sketch:type="MSShapeGroup">
                    <rect id="Rectangle-6" fill="#000000" x="0" y="0" width="48" height="32" rx="4"></rect>
                    <rect id="Rectangle-7" fill="#FFFFFF" x="13.28" y="22.92" width="27" height="1"></rect>
                    <rect id="Rectangle-9" fill="#FFFFFF" x="13.28" y="25.52" width="27" height="1"></rect>
                    <path d="M4.13507407,12.0996667 L4.68340741,12.0996667 L4.68340741,14.6159074 L5.17081481,14.6159074 L5.17081481,15.28 L3.23946296,15.28 L3.23946296,14.6159074 L3.89746296,14.6159074 L3.89746296,13.0379259 C3.64969629,13.1922724 3.40599503,13.3100613 3.16635185,13.3912963 L2.9592037,12.9526296 L4.13507407,12.0996667 Z M6.73051852,12.124037 L7.5712963,12.124037 L6.69396296,14.098037 C6.57617225,14.3620507 6.48478428,14.5265491 6.4197963,14.591537 C6.46041378,14.5834135 6.5030615,14.5793519 6.54774074,14.5793519 L7.2362037,14.5793519 C7.28088294,14.5793519 7.32962319,14.5813827 7.38242593,14.5854444 C7.37836418,14.5326417 7.37633333,14.4960865 7.37633333,14.4757778 C7.37633333,14.3417401 7.39054924,14.1244398 7.41898148,13.8238704 L7.486,13.111037 L8.12572222,12.9648148 L8.12572222,14.0432037 C8.12572222,14.2950321 8.11962969,14.4757772 8.10744444,14.5854444 C8.19274117,14.5813827 8.25772817,14.5793519 8.30240741,14.5793519 L8.5582963,14.5793519 L8.5582963,15.28 L8.28412963,15.28 C8.21101815,15.28 8.14806199,15.2759383 8.09525926,15.2678148 C8.115568,15.328741 8.12572222,15.4018514 8.12572222,15.4871481 L8.12572222,16.3462037 L7.35196296,16.4436852 L7.35196296,15.414037 C7.35196296,15.381543 7.35602465,15.330772 7.36414815,15.2617222 C7.31134541,15.2739075 7.24635841,15.28 7.16918519,15.28 L5.55464815,15.28 L5.55464815,14.7255741 L6.73051852,12.124037 Z" id="14" fill="#FFFFFF"></path>
                    <path d="M7.98011719,9.32 L7.52624099,7.82991587 L5.24401442,7.82991587 L4.79013822,9.32 L3.36,9.32 L5.5694351,3.03424279 L7.19225661,3.03424279 L9.41025541,9.32 L7.98011719,9.32 Z M7.20938401,6.71663462 C6.78976052,5.36641753 6.55354744,4.60282841 6.50073768,4.42584435 C6.44792792,4.24886029 6.41010528,4.10898789 6.38726863,4.00622296 C6.29306744,4.3716094 6.02331352,5.27507092 5.5779988,6.71663462 L7.20938401,6.71663462 Z" id="A" fill="#FFFFFF"></path>
                    <path d="M16.0056509,21.16 L15.040708,17.7617227 L15.0116629,17.7617227 C15.0568444,18.3404762 15.0794348,18.790133 15.0794348,19.1107065 L15.0794348,21.16 L13.949903,21.16 L13.949903,16.4417841 L15.647428,16.4417841 L16.6317343,19.7916528 L16.6575522,19.7916528 L17.6224951,16.4417841 L19.3232474,16.4417841 L19.3232474,21.16 L18.1517615,21.16 L18.1517615,19.0913431 C18.1517615,18.9837681 18.1533751,18.8643616 18.1566023,18.7331201 C18.1598296,18.6018786 18.174352,18.2802342 18.20017,17.7681772 L18.1711249,17.7681772 L17.2190909,21.16 L16.0056509,21.16 Z M23.1410651,21.16 L20.339826,21.16 L20.339826,16.4417841 L23.1410651,16.4417841 L23.1410651,17.4648172 L21.6145834,17.4648172 L21.6145834,18.207081 L23.0281119,18.207081 L23.0281119,19.2301141 L21.6145834,19.2301141 L21.6145834,20.1208307 L23.1410651,20.1208307 L23.1410651,21.16 Z M26.0488028,21.16 L24.7740454,21.16 L24.7740454,17.4841806 L23.6219229,17.4841806 L23.6219229,16.4417841 L27.1976981,16.4417841 L27.1976981,17.4841806 L26.0488028,17.4841806 L26.0488028,21.16 Z M29.1469473,19.4431116 L29.1469473,21.16 L27.8721899,21.16 L27.8721899,16.4417841 L29.418035,16.4417841 C30.700329,16.4417841 31.3414664,16.9065011 31.3414664,17.8359491 C31.3414664,18.3824301 31.0746844,18.8051935 30.5411124,19.104252 L31.915914,21.16 L30.4701132,21.16 L29.4696707,19.4431116 L29.1469473,19.4431116 Z M29.1469473,18.4846231 L29.3857626,18.4846231 C29.8311231,18.4846231 30.0538,18.2877638 30.0538,17.8940393 C30.0538,17.5691628 29.8354261,17.406727 29.3986716,17.406727 L29.1469473,17.406727 L29.1469473,18.4846231 Z M36.7599921,18.7944376 C36.7599921,19.5883411 36.5652842,20.1918278 36.1758627,20.6049158 C35.7864412,21.0180038 35.2163023,21.2245447 34.4654288,21.2245447 C33.7253128,21.2245447 33.1578631,21.016928 32.7630629,20.6016885 C32.3682626,20.186449 32.1708655,19.5818866 32.1708655,18.7879831 C32.1708655,18.0026856 32.3671869,17.402964 32.7598357,16.9888002 C33.1524844,16.5746364 33.7231612,16.3675577 34.4718832,16.3675577 C35.2227567,16.3675577 35.79182,16.5730228 36.17909,16.9839594 C36.56636,17.3948959 36.7599921,17.9983826 36.7599921,18.7944376 L36.7599921,18.7944376 Z M33.5133948,18.7944376 C33.5133948,19.7066736 33.8307363,20.1627847 34.4654288,20.1627847 C34.7881538,20.1627847 35.0275046,20.0519841 35.1834883,19.8303796 C35.3394721,19.6087751 35.4174628,19.2634646 35.4174628,18.7944376 C35.4174628,18.3232591 35.3383963,17.9752592 35.1802611,17.7504274 C35.0221258,17.5255956 34.7860022,17.4131815 34.4718832,17.4131815 C33.8328877,17.4131815 33.5133948,17.8735956 33.5133948,18.7944376 L33.5133948,18.7944376 Z" id="METRO" fill="#FFFFFF"></path>
                </g>
            </g>
        </g>
    </g>
</svg>