<?xml version="1.0" encoding="UTF-8" standalone="no"?>
<svg width="34px" height="90px" viewBox="0 0 34 90" version="1.1" xmlns="http://www.w3.org/2000/svg" xmlns:xlink="http://www.w3.org/1999/xlink" xmlns:sketch="http://www.bohemiancoding.com/sketch/ns">
    <!-- Generator: Sketch 3.0.4 (8053) - http://www.bohemiancoding.com/sketch -->
    <title>water</title>
    <desc>Created with Sketch.</desc>
    <defs></defs>
    <g id="Page-1" stroke="none" stroke-width="1" fill="none" fill-rule="evenodd" sketch:type="MSPage">
        <g id="512" sketch:type="MSArtboardGroup" transform="translate(-399.000000, -166.000000)" fill="#FFFFFF">
            <g id="water" sketch:type="MSLayerGroup" transform="translate(399.000000, 166.000000)">
                <path d="M23.681,14.104 C23.681,15.293 22.385,16.257 20.785,16.257 L13.217,16.257 C11.616,16.257 10.319,15.293 10.319,14.104 L10.319,6.928 C10.319,5.738 11.617,4.775 13.217,4.775 L20.785,4.775 C22.386,4.775 23.681,5.738 23.681,6.928 L23.681,14.104 L23.681,14.104 Z M20.389,1.224 C20.389,0.549 19.732,0 18.919,0 L15.081,0 C14.269,0 13.61,0.549 13.61,1.224 L13.61,5.297 C13.61,5.972 14.268,6.521 15.081,6.521 L18.919,6.521 C19.731,6.521 20.389,5.972 20.389,5.297 L20.389,1.224 L20.389,1.224 Z M33.917,42.914 L33.917,31.534 C33.917,31.338 33.909,31.143 33.896,30.951 L33.896,30.906 C33.896,30.309 33.78,29.737 33.578,29.204 C32.179,24.444 26.596,20.887 19.917,20.887 L14.084,20.887 C7.407,20.887 1.825,24.443 0.425,29.201 C0.221,29.735 0.106,30.308 0.106,30.906 L0.106,30.955 C0.091,31.145 0.085,31.34 0.085,31.534 L0.085,42.914 L33.917,42.914 L33.917,42.914 Z M0.083,67.974 L0.083,74.126 C0.083,74.32 0.09,74.515 0.104,74.708 L0.104,84.774 C0.104,87.66 2.685,90 5.869,90 L28.13,90 C31.314,90 33.896,87.66 33.896,84.774 L33.896,74.709 C33.91,74.517 33.917,74.322 33.917,74.126 L33.917,67.974 L0.083,67.974 L0.083,67.974 Z M33.917,63.894 L33.917,46.994 L0.083,46.994 L0.083,63.894 L33.917,63.894 L33.917,63.894 Z" id="Shape" sketch:type="MSShapeGroup"></path>
            </g>
        </g>
    </g>
</svg>